<mxfile host="Electron" agent="Mozilla/5.0 (Windows NT 10.0; Win64; x64) AppleWebKit/537.36 (KHTML, like Gecko) draw.io/28.0.4 Chrome/138.0.7204.97 Electron/37.2.1 Safari/537.36" version="28.0.4">
  <diagram id="l8hXMBHkgcEJcSW0mbfh" name="Page-1">
    <mxGraphModel dx="2595" dy="875" grid="0" gridSize="10" guides="1" tooltips="1" connect="1" arrows="1" fold="1" page="1" pageScale="1" pageWidth="1169" pageHeight="827" background="light-dark(#FFFFFF,#FFFFFF)" math="0" shadow="0">
      <root>
        <mxCell id="0" />
        <mxCell id="1" parent="0" />
        <mxCell id="i9tetsluj2TcpzFOhLxZ-9" value="" style="rounded=1;whiteSpace=wrap;html=1;fillColor=#FFFFFF;fontColor=#ffffff;strokeColor=#006EAF;movable=1;resizable=1;rotatable=1;deletable=1;editable=1;locked=0;connectable=1;" parent="1" vertex="1">
          <mxGeometry x="-612.4935593220339" y="93" width="588.4535593220338" height="641" as="geometry" />
        </mxCell>
        <mxCell id="i9tetsluj2TcpzFOhLxZ-8" value="" style="rounded=1;whiteSpace=wrap;html=1;fillColor=#FFFFFF;fontColor=#ffffff;strokeColor=#006EAF;movable=1;resizable=1;rotatable=1;deletable=1;editable=1;locked=0;connectable=1;" parent="1" vertex="1">
          <mxGeometry x="-1144" y="274.28281250000003" width="351.1738983050847" height="441.6890625000001" as="geometry" />
        </mxCell>
        <mxCell id="-U6ZAR6p74LzdDO5Wq72-1" value="MQTT Protocol" style="outlineConnect=0;dashed=0;verticalLabelPosition=bottom;verticalAlign=top;align=center;html=1;shape=mxgraph.aws3.mqtt_protocol;fillColor=#5294CF;gradientColor=none;fontColor=light-dark(#000000,#000000);movable=1;resizable=1;rotatable=1;deletable=1;editable=1;locked=0;connectable=1;" parent="1" vertex="1">
          <mxGeometry x="-723" y="523.8399999999999" width="50" height="50" as="geometry" />
        </mxCell>
        <mxCell id="-U6ZAR6p74LzdDO5Wq72-4" value="EMQX MQTT Broker" style="shape=image;verticalLabelPosition=bottom;labelBackgroundColor=none;verticalAlign=top;aspect=fixed;imageAspect=0;image=data:image/png,UklGRnAVAABXRUJQVlA4IGQVAADwoQCdASraASICPp1OoUslpKOhqNaYOLATiWNu/H+OmZK5Dpe8wHqJfMkwYn/lNbl6r+XP9L6DLdTwF/U+tSPl6a+4XvD2q+g39QewF/CP4P+nH9m7C/mA/o/pqemn/0+n16fnq57zz/IP9blHfn3/S9v3+m8v9bZgf+n6u7jn3D9ifAC/BP4b/W/tt4eYAf5X/Wv3w95GZ9/Y6gH+p9Pu83/z9Er3rf3f1DP1a/Vn/9j4wUVF1N9uMcCF7XXrLoJWnLSJ+OwEMYln28FJGSLjIQFFRdM7U5pbttnHJ+Ea+5x5jU2PsICioupvuDIQBRXs03hIFrtWXqQuye1dv8SUyq2ro3E5eyqioupvuDIPNHe4ezos54f5VxzsvHibLZOE8xRyi5W8l4pivUnwLnU4iiVepvuDIP/Kbw2ZDebzkETT6fyqa2Bb4U6oE6fSxohh/Hg2OiLf8hKbtQFxlDtgkdhxAhyu2TQsj6YCqmt2eucGe0mC4Nv0OFnB+Wopo8Cy2HWGYgllQi6mUgOnriODTD7vaW3fKRn8x83hqYdlRV6gj6zFqOtS2sineHPL5NKiaoTisjadhWsrqrOL8AKprXiM1JsqhkICil/4QY/dfn0IT7or7fyOYyyIr6E83rEvuwwvpb+Jbh+goqLqb7gyEU5xquXOlLIi6KuFCN80XSgcH+fEFgfgIYoJHZVDIQFFRdOoiCaKzAl1vpNqmXMVzjwm3Tqrb/wtVr6TIoSF2rEsfy7NIIxSHvokYnDcsJVUZPEmYTgE0CGlvvkamCioupvuEK5mEqpsTxn1n6FagAJAbfLMcWjsRX4A0nZcP5lg/xdpE9Z3sk2vlLd/5a7H8o9pMKPJhfT+76m/NYzm1GL1VmW0APanf8LJXakO2CR2VQyEBRUXUyM6XzhIm+4MhAUVF1N9wZAJYoUPwcvljVbmCSODZpBGKcQRinEEYohLaPKIa0U4KKi4BNbcjORfbWkMeReqsy2gB9p0iZ+09PgqJL6cDhhKtu7T+QlYlqLFG6mSF2rEsfx02lgeoyqm+4MS2Lh4z5kUrwwuzfIvZh2VFRJfTgcMKLqb7gyEBRUXU327Jd0LLiUMP1vgH2F1CQu1Ylj+XZpBGKcOQq+SFCejExPGfWfoVqADqnHB8445B/cGQimjN/+O6c5MJWP7gfcix3WLpa1MOyoqLqYBsO7WaxBaTZLuhNYSqvHFlhcTbH+s9M3rKXoszSCMU4gjFOHjsIJTHwdzrsuqqPtqwFmjbg7qXGR8LEcBUXHOn3qb7gyEBRUW7ilNd+F7U+7/kZWZEv9jrDcDT4Wfm9gl8FS/LzHfuLXG+4MhAUVF05wGVytp4ghoT7p467bZ7Gyw5f4WAcJkmj0f/ioyuPLAwSlvyhegkdlUMfqV/e6A2bxSOXc12Gq3gU7JJAJsK5bkpqS15uMshFX4B0qOklkupvtze4UD1afC2LVmd+/vNLrpb5N0Mg7rZcvCpbtJ2z/VfR1gE5hWBVJfqMFYA3zIoy72/w1Ptdkv/wvGheOQf3CHwflOfGT0446Hkkg7LqG1dz8UIA1IPWAu6bnYfiX3eyOuEfMFFRdTfcGQdaFSE1bkD7p6Kx5CvVuNKNsfrZelcSwDv3Wk3xBybKoZCAoqLqb8e6IFXvU22nvSmwDK3f/kJz92NA0FFRdTfcGQgKKYT8IY8907BBm+U97KHhIRozgyEBRUXU33BkICh/MIlVZwgE2VQyD/wAD+/gggM91+o6EBip30J84hdg6v6dynKM4GX64oCZZcqzHfY1D1QyMcUFUOlPUfx6CxwlnqlLInQp4oB024EMMjt6AMTDbgQL9kAQMqy5WQXBZ5mUQW4EF+X2xOt5OhvwJScylQXoxFAqYyBvnyzuz/XR16POOt09/WBlpaAharq/fSqWt2YzEqKoFWzZpJNSkAJq9BsnBP6paASCL5P22xltIwdUyIrRdFtSSXqUHEv1xEguQOZfJ6UYz1av6LUbW188iUvQuUgGovCAV1R5fCK6672j6QtSgGUPaOWfYrSwtAjPGAAAAExUeSql458bif1mf0EpJA068IU4vCRHcTotMKI04b04GceQraG/903zTrKFy56JwaTA5LmO9hnB5GI7SH5ZUXggm5eMVGj+dpI+txPTteHpo5ob1KpY/WlBxC4JbDD0uGfNR4UK5DTEHtuucNi47nsFcrrBjZt/cLsL1AMFFcmbiMV5NLIjG4gdoJ3sad7iA7+kgnQX+6XABkP2elDQVleeAYSkxQ3bFhErSoZmPEaqXsLn0mH6GpSyn1uA1G1p27tW9G9h+7kF27GgkfeKkmOUCZR8RBjyWC2gBwJ3sMMFkvAzcF89LTcH3rtuWad+CG3Q0HesyKe9gBmx4KjnZbbTedYtpH17jO4eBZ2F3ANBEef2URy4VJmzOQY09X7VDNBKgKGg7brvo9WQM+wi+cZ1PnKDuLiL+/e8HbnHq9pVGm2FiQQq6/RKVIt8wuKH3wxVUzM9HijNkgFoj1hM4dEobFLDps/ksHZ3VjQDEhQ50DvamoCCYXWwtr+PdWCF/0zVQl4uxqnvwILwEdD3lhLV23i1uB3jKhlMtP2Sb2Uc6SkfEtw076CMlP8aO+QBrsBpXYUc520uYcOFZBDOt9cGo/zx7Qckcr+4fLYIGYJIhRgrgZ/Uys6R2jonfpRqocGkzkUvN2VgrHBakel0/i1e+gmcrvVEr5L8XzKS0IiogqjYBsSkWIMtbvrvqqS9tPcawZdkg3qdN8E/UgJKHtKEGVSllM1gwNN7hotCsPBAZXnKtr2sefv/YDp4EKkfe/igFZdR+cKQa656yjEJ2JazxEpfGDuiWIDswZBip30WYlWu9gx5eE11EOBszHxtseIgJXcUBzIArRuScyqKiez2efWzqLEbJd7dBRUUP0fovmPX/Yd9bcKWrI9CBUViiza/t+gMkJKKg0b8wUIcrX+HiuWn2uMmkWRgWFCY+aLdC+87ozUJw3BHV4pc0sRFP1Z2G+NgA194bnwnSEsl2NRBPvDklFCATblMEJ5gU88sBxltut3I4qroZJwaMn/ekkQFwNztKAWS4EoGIj4Qb4TSDGownkaHcYrtIeoStppDnzlgGw57/dSp1gXvh/9CskI7ZuY51CzJULAK7Dgss9M3EpxqxWfaMqMN3HnoXiMfj7JRY7bs1+wq1TqbqizYc9bVkJo8giASUmyyZE0noL9TkMPHjp+fSKExHlSb3Bq0NBEgiPEOEv+YfHWKKwxf4LADYLyDzIXtavup6uezYOyb/KgOccOXG3r9WUMfB2rgbooG8UGzTKEalWId/q2Xqy1WI5hN3KzWGAJQFazPOlsJypz4Odzx/uNrzl52/uhigo52JSAUkPvxuFhxFoPBbts6m0DYNMkcuWPhc8McuN97pvIf2B6L84Pjb+dngPG8ntHZmaTA6+HJSn2lipyAymvL+zHurZXiOEIfRS8pr9qWBFT7NfIkSJwEmuO+KD5PyjD4CV964fPfW1quXf+vTz1KAApuJVlnCNa3EaI3Qk+cJrgg6mSrkLAiPcAMmo0dSuJ5erdfAxiRJ3OMyg4nIGF7tnFzTOtdH0MqMDbcjBzqaOS64KUzH5V39ttzCJyIOV497vYTGEuOqAyYuxumnSlIzZ2ISr+n0J+/T7TNgrn3uhdE4Aflr9dLgH3QTHxAgSrZIu+8mqRGI7GHFLmKz4dT8BeW4V8UsIAj9jIpXp4AImlfaff5bkAFT4OTXsW8nvT0LALt31zZubBJSfxauULn2zQHxYAAF/p5oftHOugnNxVHI9kNXMq7sH3maneS5GC9fqje6Ld4eu6P+4ta+aTOk5u6JfwaGCimW/GL/9man8JCq6qk529ivYw8ZpJ8aqkgqlJaV3bHO63LcRA2AguzmLHSVsOoT3pF728F7Wqp08tLSvrVmrthrBqb1Sqc+IqyPeiYujoqci9JYAAhSAjoCqIXqrc3r7F/EFHGvM5z9eVhwEj4eTMPmtiEx7pDS69a6dyIwloXyslaQ1GZ4yAnWkbJVZndrBcLnAKyqFrB9OMkIStLNza2mr9LBh2pTlRJbrmo5q7D6TvRv511omruhlN4rMQsWn5yrchtPzlW5DafnKtyG2hMoOzSbe1yigs/DlVd5QYvyCXNvJ0SrstLt5NbTHJF7TXIHuSCT2UQ8kt8F/SzDiD/fFiSk80MWZss8EBIKNF6QtXtzKM50Cws09SlOdPItNiL2+E+g/xks+vZTdKi7nf9s8taQhbADGCQgHc3qqF9W+wkHCM9MN+fwKZvYWvFlp4l+LXrlxqa9yrqrwfjvycSoZUqsAAAAAAAZMhEFJemXLVPSouvf4IRQGJo23r5tleGW7P451yfhQ50nw7PlrWFfs6XOBqP6rn1tVoKmuQdgAAAAqcmcAAoonhgzAl8CP6O7l3HlkNcAhDjQRI3gI+t/f2Jp0ogL4n6uonQUDeuXJUCSbbvSfUAp7+P2llwwDnHWctnLZy2ctnN9c+jWbfykN6CwL+EUBkw/mLg6uf/WnIlUUjH6w/9UUa08v9rCmuQiBg0xDWPIxkRfa/PjsMbjklfyAuKr6wQAbThI6bCyiqjR0boGX/47LibYCwYKkxsX17v2IcWuJr/41cxgMk39rTkZ43Jm1Vu1ggkbUU/QGWain6AyzULeEo/DxFAJNyqIChxzvvOhi32UMvzHk93wEeg8Xkl7Hz7oIhNskAAAAX8gRkALDeWSP4l+kltMKB6Xmq2+mhh8oQWaBg/PJm9W0t6G0/OVbkNp+cq3IbT85VtRMM5l4HefQQljJISiL+ozwftG4fhFD9KNMoeKPqyeoHH1s6YvHIH/KDOgNV81CulvteFFLodIzDqPzNimPyASKWQV5HQXMQ8o1Q662pUDPsteY25UXd1RyZxagCA9EuFmrpUyDpUhvsUcqbJiHik/khCoKhcXS6KUpqffNKbZ8SpEIwAeCa16/QPTuICPogco1mEmgeQsRQ83r4vkXb+5PeMeVT1jSnyW2cxQfIl70uhMGT+OX0AfwjX8lqIYCC9kqOUEm9mA64o4BtjicazMwFENIwLqpQP9N5ea6QajWwzy/4GbnsUCWS9HKDdmIAawbgebgi+Uv6USfWZqy6jJn+bQZLbybP0oGtZMGwaW1F8/dB16WuAvy356qTV9MvrUw1fdyCbkHqm1S5RpZ0hMRlt1mVTJXPbhSc9dWBqa3OsrLBkrHe67cPIhedrByw3UAAXe6uWKhPqjcfTerkmM7kIFjwVQyOUVhWSFfI8nkWVwFWrkQEyVPCQe2dtTBQoo3S1uuHB38t030SBiCNGCHe4FW/+EdRbqqG3JrPEY+3k5XkVhUsIVbI60lCi10+z4z/bZEO3Rf8Tb0d8U9QJfMCWngyhTb3yusF8SDYbRkhTAuIhqETnSAIo6q0nWIgjtivsiJiiysTOymFkpjOQS3nAMVndTtL/GA0df3nUl4Bjpdl3fCNcPq/zXQHDv3EdEbu8muOv+sMjJYwVSim+E2SUkoqxNNHfESS+AanZp/xySnESUFDXVjWTFeBs7tYS30ZJfd9zVBMzuCEeePi38uBdx3RbKhCikh0SyhidyJZGzas/vYqG+UuGiBskM6tW1Cti7z+fKp6xzB0nh4kNTnTMghlMpu8rNzFgevIdwwoEur/Dvr+7U2mL/5+w6LRe81OSmySiNFEYsW0xSJ80gwCUnPXEcCCx4lfxM0ChymisyC3sBatUsBQHJ6yo4GgWmDBSLIUNbsU69YQsyIqDUxCQPlBiVSZEyaWtVu4x9VUiorRXe2+zOH8oa3EYzVm9zcaXUi0wF8aaQQIxHavq5UzI3R4MXefM1j46fpWJocOYQcQ/pdYWocJsUEaS+NK2PlYpmaw8nYdMgglTNUtC5Wr5Y6IIRtGXZ9bg0xVymAno6VR9c4JrzyFIaLL2Xy2N9irrIVb8BD6f4325L9Z9Trf0mGsTq0ZrxB0+WJfgK7sRX4W0pRf6KuSCZSu0mPHEM/inTlEynw4JFOzJAG5WGHPvt+tURoVHONAWU13TvWDlECizWiqx70BW+w1zBoyepM/1sH3xacknhA0m/XPMpeG4EMqsxsuX7fZRm2DbUa/dUGGSG6oQCLLGN7qANqe0E+eqlJsK1x2h0jGqsMbneAyppP3zXV9OaCMda2BcThZQSKtIHTfsIurHJrbkAAB8kQ3HbmvL59ZDyi+RZHDvWvdHkBdC7dUAOFvKK6dpQWfNVBmu6eQDpLGAYtbNOiecnotNMGtsadZWXclFuPtWvWpU6ata59knSnWYFCT0pDSDMrcw6VnsmZmucOWFCMoPes/5Y9nUOXkLDYbAlfGBqx4fcRYNl0b7gfQRSyQAYSKLRNLEq5MTLEO3bScpewfZr5FL9NGYsZEh4xM4niJz9x4DXJODV4coijatG+/2RNAo+ASEW6hZ+B/uKfkxQvtnrviouh5gDMvExUDIUey1ARmr5Exnd2q5ApCuCPH0lAWRSLxchNbyaaF4Dp+71iUHf+4WPUvs8+A550AI1yXHTNa7eliWGAr8nAfG2KcpQScNX9bo8pnEYDyTp7Qo0sU5DMsaRHXyW9vuF+Moiauyx9Zhzpxpex/D1mEpr4InnnuZY1S1+gzZkaBlT7bc4mJdnnRy7Dv0e44yTRaOA/yabD2Z8rB4FGVCFCEs2AM8NdJ7LZkCwolZijvC7F3AQGUC2Z6eSJR4YjQfB2/TjllRgAHNRDxiNK3YjAMO8hZ43QuLWZY68OOtrfaDfqw+dn5wvjz007I2t2rG5k+onYiCvwKWQchwZLKlpr/IhgUhWanY4ewPamxjfixf0eok9hSseuA4srQIoACAyOQr0ONvTUNS4YINiyjdDT0A7dFHzzkzF++ldIT/mfhyEQE41IzqA53/cPtbufOH7JnPHxcBqiVWy4SvWi0LCGg1cV10hjCUy77HWX6iOLrjWFgDFrh+QhYJFu2gU6kZBgO5e4zWjq0DcDL6UpnVo4sPnGVzZP8Rhe1ZgmpyqUJ4wSjfl60eAN30ielrbSWoGKgNNypyB7REzbT8hpAHk1Hj0flEyPWarfNyGX5jwizo6BAwle4l62dx8+LOwW11roAAYlzhKGE7Xg7rSLGxLVD8x5TdBoNL+aWLC2NZOyUS63bDflQEaICDXRHGkNoDiQyHHLcPx6/T63c//B6UZl0nq4RtTpKDVWhbcaggDDIYeIoMok3D7WWX1aDt28EC6ZJQ8RZJhHawAABuL/dEdI+LqUzTm3Mv4/P431cPz+O/7GKvQk8xRGlh10AAAA;fontColor=light-dark(#000000,#000000);movable=1;resizable=1;rotatable=1;deletable=1;editable=1;locked=0;connectable=1;" parent="1" vertex="1">
          <mxGeometry x="-555.5464406779662" y="554.78040625" width="84" height="97" as="geometry" />
        </mxCell>
        <mxCell id="-U6ZAR6p74LzdDO5Wq72-5" value="NMS 2.0 Docker Container" style="image;sketch=0;aspect=fixed;html=1;points=[];align=center;fontSize=12;image=img/lib/mscae/Docker.svg;labelBackgroundColor=none;fontColor=light-dark(#000000,#000000);movable=1;resizable=1;rotatable=1;deletable=1;editable=1;locked=0;connectable=1;spacingTop=0;" parent="1" vertex="1">
          <mxGeometry x="-565.9976271186441" y="124.998125" width="93.75353784406781" height="76.8782806779661" as="geometry" />
        </mxCell>
        <mxCell id="-U6ZAR6p74LzdDO5Wq72-15" value="Python Script app.py" style="shape=image;verticalLabelPosition=bottom;labelBackgroundColor=none;verticalAlign=top;aspect=fixed;imageAspect=0;image=https://www.pngmart.com/files/23/Python-Logo-PNG-Image.png;clipPath=inset(33.96% 33.33% 26.42% 33.33%);fontColor=light-dark(#000000,#000000);movable=1;resizable=1;rotatable=1;deletable=1;editable=1;locked=0;connectable=1;" parent="1" vertex="1">
          <mxGeometry x="-253" y="553.1" width="119.31" height="100.18" as="geometry" />
        </mxCell>
        <mxCell id="-U6ZAR6p74LzdDO5Wq72-16" value="Grafana Dashoard" style="shape=image;verticalLabelPosition=bottom;labelBackgroundColor=none;verticalAlign=top;aspect=fixed;imageAspect=0;image=https://creazilla-store.fra1.digitaloceanspaces.com/icons/3253859/grafana-icon-md.png;fontColor=light-dark(#000000,#000000);movable=1;resizable=1;rotatable=1;deletable=1;editable=1;locked=0;connectable=1;" parent="1" vertex="1">
          <mxGeometry x="-198" y="288.51" width="89.02" height="97.02" as="geometry" />
        </mxCell>
        <mxCell id="i9tetsluj2TcpzFOhLxZ-12" value="" style="endArrow=classic;html=1;rounded=0;entryX=0;entryY=0.5;entryDx=0;entryDy=0;fillColor=#1ba1e2;strokeColor=#66B2FF;strokeWidth=3;startArrow=classic;startFill=1;endFill=1;endSize=15;startSize=15;exitX=0.953;exitY=0.463;exitDx=0;exitDy=0;exitPerimeter=0;movable=1;resizable=1;rotatable=1;deletable=1;editable=1;locked=0;connectable=1;" parent="1" source="BZuwfLpHIagBlso1Sxgw-1" target="-U6ZAR6p74LzdDO5Wq72-4" edge="1">
          <mxGeometry width="50" height="50" relative="1" as="geometry">
            <mxPoint x="-754.8613559322034" y="605.8000000000001" as="sourcePoint" />
            <mxPoint x="-574.5288135593221" y="523.671875" as="targetPoint" />
          </mxGeometry>
        </mxCell>
        <mxCell id="i9tetsluj2TcpzFOhLxZ-13" value="" style="endArrow=classic;html=1;rounded=0;fillColor=#1ba1e2;strokeColor=#66B2FF;strokeWidth=3;startArrow=classic;startFill=1;endFill=1;exitX=1;exitY=0.5;exitDx=0;exitDy=0;endSize=15;startSize=15;movable=1;resizable=1;rotatable=1;deletable=1;editable=1;locked=0;connectable=1;entryX=0;entryY=0.5;entryDx=0;entryDy=0;" parent="1" source="-U6ZAR6p74LzdDO5Wq72-4" target="-U6ZAR6p74LzdDO5Wq72-15" edge="1">
          <mxGeometry width="50" height="50" relative="1" as="geometry">
            <mxPoint x="-422.66983050847466" y="605.8000000000001" as="sourcePoint" />
            <mxPoint x="-251.82847457627133" y="605.8000000000001" as="targetPoint" />
          </mxGeometry>
        </mxCell>
        <mxCell id="i9tetsluj2TcpzFOhLxZ-14" value="" style="endArrow=none;html=1;rounded=0;fillColor=#1ba1e2;strokeColor=#66B2FF;strokeWidth=3;startArrow=open;startFill=0;endFill=0;entryX=0.25;entryY=0;entryDx=0;entryDy=0;movable=1;resizable=1;rotatable=1;deletable=1;editable=1;locked=0;connectable=1;exitX=1;exitY=1;exitDx=0;exitDy=0;" parent="1" source="cu6Qh6DOpHAIpUZxQI7h-4" target="-U6ZAR6p74LzdDO5Wq72-15" edge="1">
          <mxGeometry width="50" height="50" relative="1" as="geometry">
            <mxPoint x="-382" y="392" as="sourcePoint" />
            <mxPoint x="-242.3372881355931" y="615.8156250000001" as="targetPoint" />
          </mxGeometry>
        </mxCell>
        <mxCell id="i9tetsluj2TcpzFOhLxZ-15" value="" style="endArrow=none;html=1;rounded=0;fillColor=#1ba1e2;strokeColor=#66B2FF;strokeWidth=3;startArrow=open;startFill=0;endFill=0;exitX=0;exitY=0.5;exitDx=0;exitDy=0;movable=1;resizable=1;rotatable=1;deletable=1;editable=1;locked=0;connectable=1;entryX=1;entryY=0.5;entryDx=0;entryDy=0;" parent="1" source="-U6ZAR6p74LzdDO5Wq72-16" target="cu6Qh6DOpHAIpUZxQI7h-4" edge="1">
          <mxGeometry width="50" height="50" relative="1" as="geometry">
            <mxPoint x="-543.2078983050848" y="386.4578125000001" as="sourcePoint" />
            <mxPoint x="-265.03446915254244" y="343.24875" as="targetPoint" />
          </mxGeometry>
        </mxCell>
        <mxCell id="BZuwfLpHIagBlso1Sxgw-1" value="Smart Box API" style="aspect=fixed;sketch=0;html=1;dashed=0;whitespace=wrap;verticalLabelPosition=bottom;verticalAlign=top;fillColor=#2875E2;strokeColor=#ffffff;points=[[0.005,0.63,0],[0.1,0.2,0],[0.9,0.2,0],[0.5,0,0],[0.995,0.63,0],[0.72,0.99,0],[0.5,1,0],[0.28,0.99,0]];shape=mxgraph.kubernetes.icon2;kubernetesLabel=1;prIcon=api;fontColor=light-dark(#000000,#000000);movable=1;resizable=1;rotatable=1;deletable=1;editable=1;locked=0;connectable=1;" parent="1" vertex="1">
          <mxGeometry x="-916.2115254237287" y="567.7706718750001" width="79.15615566101695" height="75.98611297627119" as="geometry" />
        </mxCell>
        <mxCell id="BZuwfLpHIagBlso1Sxgw-6" value="Alarms" style="sketch=0;pointerEvents=1;shadow=0;dashed=0;html=1;strokeColor=none;fillColor=#005F4B;labelPosition=center;verticalLabelPosition=bottom;verticalAlign=top;align=center;outlineConnect=0;shape=mxgraph.veeam2.alarm;fontColor=#000000;movable=1;resizable=1;rotatable=1;deletable=1;editable=1;locked=0;connectable=1;" parent="1" vertex="1">
          <mxGeometry x="-1104.1370169491524" y="473.59375" width="66.43830508474576" height="70.109375" as="geometry" />
        </mxCell>
        <mxCell id="BZuwfLpHIagBlso1Sxgw-8" value="" style="endArrow=none;html=1;rounded=0;fillColor=#1ba1e2;strokeColor=#66B2FF;strokeWidth=3;startArrow=open;startFill=0;endFill=0;movable=1;resizable=1;rotatable=1;deletable=1;editable=1;locked=0;connectable=1;" parent="1" target="BZuwfLpHIagBlso1Sxgw-6" edge="1">
          <mxGeometry width="50" height="50" relative="1" as="geometry">
            <mxPoint x="-929" y="583" as="sourcePoint" />
            <mxPoint x="-643.8144745762711" y="411.4968750000001" as="targetPoint" />
          </mxGeometry>
        </mxCell>
        <mxCell id="BZuwfLpHIagBlso1Sxgw-9" value="" style="endArrow=none;html=1;rounded=0;fillColor=#1ba1e2;strokeColor=#66B2FF;strokeWidth=3;startArrow=open;startFill=0;endFill=0;movable=1;resizable=1;rotatable=1;deletable=1;editable=1;locked=0;connectable=1;" parent="1" target="BZuwfLpHIagBlso1Sxgw-12" edge="1">
          <mxGeometry width="50" height="50" relative="1" as="geometry">
            <mxPoint x="-935" y="609" as="sourcePoint" />
            <mxPoint x="-1030.1057627118644" y="573.7500000000001" as="targetPoint" />
          </mxGeometry>
        </mxCell>
        <mxCell id="BZuwfLpHIagBlso1Sxgw-12" value="Sensors" style="sketch=0;outlineConnect=0;fontColor=#000000;gradientColor=none;fillColor=#7AA116;strokeColor=none;dashed=0;verticalLabelPosition=bottom;verticalAlign=top;align=center;html=1;fontSize=12;fontStyle=0;aspect=fixed;pointerEvents=1;shape=mxgraph.aws4.iot_thing_temperature_humidity_sensor;movable=1;resizable=1;rotatable=1;deletable=1;editable=1;locked=0;connectable=1;" parent="1" vertex="1">
          <mxGeometry x="-1106.0352542372882" y="573.840140625" width="70.23447864406779" height="70.23447864406779" as="geometry" />
        </mxCell>
        <mxCell id="BZuwfLpHIagBlso1Sxgw-14" value="MQTT Protocol" style="outlineConnect=0;dashed=0;verticalLabelPosition=bottom;verticalAlign=top;align=center;html=1;shape=mxgraph.aws3.mqtt_protocol;fillColor=#5294CF;gradientColor=none;fontColor=light-dark(#000000,#000000);movable=1;resizable=1;rotatable=1;deletable=1;editable=1;locked=0;connectable=1;" parent="1" vertex="1">
          <mxGeometry x="-384" y="523.8399999999999" width="50" height="50" as="geometry" />
        </mxCell>
        <mxCell id="BZuwfLpHIagBlso1Sxgw-17" value="GPS Coordinates" style="html=1;whiteSpace=wrap;strokeColor=none;fillColor=#0079D6;labelPosition=center;verticalLabelPosition=middle;verticalAlign=top;align=center;fontSize=12;outlineConnect=0;spacingTop=-6;fontColor=#FFFFFF;sketch=0;shape=mxgraph.sitemap.map;" parent="1" vertex="1">
          <mxGeometry x="-943.49" y="401" width="133.72" height="78" as="geometry" />
        </mxCell>
        <mxCell id="BZuwfLpHIagBlso1Sxgw-18" value="" style="endArrow=none;html=1;rounded=0;fillColor=#1ba1e2;strokeColor=#66B2FF;strokeWidth=3;startArrow=open;startFill=0;endFill=0;movable=1;resizable=1;rotatable=1;deletable=1;editable=1;locked=0;connectable=1;exitX=0.5;exitY=0;exitDx=0;exitDy=0;exitPerimeter=0;entryX=0.5;entryY=1;entryDx=0;entryDy=0;entryPerimeter=0;" parent="1" source="BZuwfLpHIagBlso1Sxgw-1" target="BZuwfLpHIagBlso1Sxgw-17" edge="1">
          <mxGeometry width="50" height="50" relative="1" as="geometry">
            <mxPoint x="-919" y="593" as="sourcePoint" />
            <mxPoint x="-1028" y="536" as="targetPoint" />
          </mxGeometry>
        </mxCell>
        <mxCell id="cu6Qh6DOpHAIpUZxQI7h-4" value="InfluxDB Database" style="shape=image;verticalLabelPosition=bottom;labelBackgroundColor=none;verticalAlign=top;aspect=fixed;imageAspect=0;image=data:image/png,iVBORw0KGgoAAAANSUhEUgAAA4QAAAOECAMAAADOkA8JAAAAGXRFWHRTb2Z0d2FyZQBBZG9iZSBJbWFnZVJlYWR5ccllPAAAAyhpVFh0WE1MOmNvbS5hZG9iZS54bXAAAAAAADw/eHBhY2tldCBiZWdpbj0i77u/IiBpZD0iVzVNME1wQ2VoaUh6cmVTek5UY3prYzlkIj8+IDx4OnhtcG1ldGEgeG1sbnM6eD0iYWRvYmU6bnM6bWV0YS8iIHg6eG1wdGs9IkFkb2JlIFhNUCBDb3JlIDUuNi1jMTM4IDc5LjE1OTgyNCwgMjAxNi8wOS8xNC0wMTowOTowMSAgICAgICAgIj4gPHJkZjpSREYgeG1sbnM6cmRmPSJodHRwOi8vd3d3LnczLm9yZy8xOTk5LzAyLzIyLXJkZi1zeW50YXgtbnMjIj4gPHJkZjpEZXNjcmlwdGlvbiByZGY6YWJvdXQ9IiIgeG1sbnM6eG1wPSJodHRwOi8vbnMuYWRvYmUuY29tL3hhcC8xLjAvIiB4bWxuczp4bXBNTT0iaHR0cDovL25zLmFkb2JlLmNvbS94YXAvMS4wL21tLyIgeG1sbnM6c3RSZWY9Imh0dHA6Ly9ucy5hZG9iZS5jb20veGFwLzEuMC9zVHlwZS9SZXNvdXJjZVJlZiMiIHhtcDpDcmVhdG9yVG9vbD0iQWRvYmUgUGhvdG9zaG9wIENDIDIwMTcgKE1hY2ludG9zaCkiIHhtcE1NOkluc3RhbmNlSUQ9InhtcC5paWQ6MEI1NzMzODU2ODAwMTFFOTkxRjBFMTEwREFDRjU5M0MiIHhtcE1NOkRvY3VtZW50SUQ9InhtcC5kaWQ6MEI1NzMzODY2ODAwMTFFOTkxRjBFMTEwREFDRjU5M0MiPiA8eG1wTU06RGVyaXZlZEZyb20gc3RSZWY6aW5zdGFuY2VJRD0ieG1wLmlpZDowQjU3MzM4MzY4MDAxMUU5OTFGMEUxMTBEQUNGNTkzQyIgc3RSZWY6ZG9jdW1lbnRJRD0ieG1wLmRpZDowQjU3MzM4NDY4MDAxMUU5OTFGMEUxMTBEQUNGNTkzQyIvPiA8L3JkZjpEZXNjcmlwdGlvbj4gPC9yZGY6UkRGPiA8L3g6eG1wbWV0YT4gPD94cGFja2V0IGVuZD0iciI/PqqciqcAAAK+UExURf///yKt9vz+//7//ySu9vr9//b8/yav9iWu9vL6/i6y9iqw9iyx9v3+/zOz9yOt9vX7/+34/u/5/jm290C497vm/Cev9jKz9+f2/s/t/fn9/ymw9lO/+Mbq/WDE+fv9/+L0/rTj/M7t/WbG+YDQ+lG++ODz/vf8/23J+XPL+Ui7+I3V+tjx/T+4967h/MHo/JTX+1rC+DGy9+z4/vj8/0K590W696Hc+9vx/iiv9ji194/W+pza+8Do/J/b+zCy94fT+ju29+n3/i+y91fB+FjB+Oj3/vT7/7nl/HrO+uv4/l3D+GXG+cnr/fP6/9fw/bHi/DS0993y/qrf/JrZ+6be+2zI+cLo/dDu/Z7b+8zs/Tm190u8+GLF+XrN+m7J+Uq8+PH6/iuw9m/K+YzU+jW092jH+WHE+fD6/lC++LLi/H3P+ka696Ld++T1/ja096fe+5XY+9Tv/ZDW+trx/Ty39z2397bk/K3g/MPp/V/E+Oj2/orU+pbY+6vg/JLW+97z/tHu/dvy/sjr/V7D+ITR+qff+9Xv/XTM+eH0/km7+HDK+VXA+IfS+pjZ+0y8+Nbw/eX1/i2x9rrl/EG594vU+ur3/rDi/L/n/HnN+uP1/qzg/Ob2/ka796Xe+8fq/YLR+oPR+nfN+VTA+De1983s/VnC+K/h/Mjq/X7P+nXM+VbA+HbM+bfk/KPd+9/z/kO5953b+5nZ+3zO+ky9+E69+InT+qnf/O75/k29+KDc+7Xk/I7V+mPF+Zra+2vI+XvO+mTF+b7n/Ljl/Ee7+JHW+8Tp/bzm/NXw/VK/+Kjf+8vs/YHQ+nLL+WfH+Tq294jT+n/P+tLu/ZPX+4bS+njN+WrI+dPv/U+++GnH+bPj/FnB+D6395va+3HK+US699nx/b3n/FzD+IXS+tzy/srr/aTd+5fY+1vC+MXp/XGJm6IAAFzASURBVHja7J3lg9xG0sZHM8vMXuZd79qLZmZmZmZmZmZmZmZmZsYYYidxOLn/4n3vkrvY3ulpzUx1SWrV76s9UnV1PVp1q7rKYiEIgiAIgiAIgiAIgiAIgiAIgiAIgiAIgiAIgiAIgiAIgiAIgiAIgiAIgiAIgiAIgiAIgiAIgiAIgiAIgiAIgiAIgjAIgcmRVXakPSxbzFv5Dz7Vx5XY93T07WhyDUGIJ3rQjnh/hUFEjXc2chFBiMMr8sYahcPzgxOTyFMEIQLfvK5xiir8ug/yJX8RBPAqcMN1lQr8e5XYeOgW8hpBgFF6+nPFec7cfUCuIwgIKhypqLjI2PQEWiAShJvMzwpW3KH64pRm5EWCcJnkxYr7RCX+PplcSRCu0GyutwLE+4Lm5E+CcJa84QokuTsPWMmpBKGelXMUcEpljw8hzxKEOh4FKEKo2HVELfIuQXAZ0E4RR3DGyArkYoJwSPNcRTBrvmlKC0SCYJLiryBQbMFqL/I1QdhjaLCCRFyTR43I3wTxNQUKJsHxy1qRzwniM2xzFXRO1OgUSJ4niL+wHlE0oeWuyOLkfYKwWDz7KZrhnzYtlGaAMDshfyqa4nH42nGaBcLMhGUo2jNkSiotEAmzMrmEog/2dLtVhqaDMCGZuYp+COg3IYymhDAZOZUUfeHx8WQyTQthIlKrKzrkTp+ZVE2YMAkT/RWd0vl01ViaH0J+xnsrOibg+v4BNEeE3Jz3UHSOT2G1TTRPhLxcUwxBjyujaIFIyEkfxTA8P9jekyaMkA3rDcVQ+GVRuxlCLjy7K4bDp3H5lTRzhCx49VeMCbWbISTB97BiXMam36N2M4TRCe2iGBtqN0MYnJVrFOMTNekYtZshjMqscEUSqN0MYUxeBSkS8d0OajdDGI3tfopkULsZwlhE+isSEtW/LbWbIQxCno8iKcEZI8fQ/BL6p7wiNRG/ULsZQufcVaSn2IIGtEAkdItth2IK4m5SuxlCn1izFdMQHL9sFs04oTdi0xRzQe1mCJ3RrFAxHy2PULsZQjeEZijmhNrNEDoheqtiXjyWtKF2M4TWZH6nmBxqN0NoS05fhVCGb/yJ2s0QGrHXjxT4F9RuhtCGfH9S32cLxLpVkikmCFxSvEl5X3GnTweqJkzgMcKDRGeHSjeo3QyBxCnSG3OBeH0/LRAJ4dhqkNYcQe1mCNFYu5HOuPS48ooWiIQoPNuRxFRB7WYIQXglkrxU45fVgtrNEND4xpO0nFsgUrsZApZGi0hWzrN89HwKHQKI5AhSlGtQuxkChjHhpCbXqd2b2s0Q7hITREpyj6hJx6IpjgjXSVhFKgLg7GtqN0O4SGQUCQiI73Zsp2rChPNMoJRtSEo9pXYzhJN0JN2ALxD7t61HgUWopjJpRgjUboZQiS2d5CKMiLmzaYFI8LA+JakIhdrNEBy8mpBMhBN3dd46CjWCge8+kggK1G6GYBB6luSBR9mlj6maMPEV0eVIGbhQuxniSzJrkio0WCCmtaZ2M8TfPKCUbY3wWNJmBsUfYbH8hlbpvnNh7wULbi6n9NTPKXeO2s2Yng04le6Du06r9fcdk1JHfyLxfcbwjT/RAtHMDEKpdO/TLfnL2zalSlJf0IvazZiXbSjHJnrYOVz3WwmS3pcLxLpVMikgTchIlPDqZrd1Q9I5lT8f26WEWbaOqN2M6bB9gxJZd1n3X61mORqx4t//9UL7kgPNocNKDTdQuxnzYN2FElVD2RY8VrExO+1//7te2/7m2FildjOmwfMtRkB5r3dkQwJfVec///8h47NLmUKHPvs6JlOISo9XY4xg8v/JsRUNuBtDV7/++31gZ645Xkyp3YzsDHiIEUd+TXl2tOZe41XRHzUveG8OHYYPzqd2M9JSC+UDQdAoviXXeBc5a7eo9eTfE82xQPTLatGT4lVGFqJUun8+Q40tL3iX+YXxw/qXfzDJAvFnajcjHzmdMWLnk7o61LY3vAtNYG/wbt/xnTleTKndjGTEFMMIm4tqD+pYv+XtsLZ39PPmBSY5kVyT2s3Iw796YYTMR/WNMz3/5O2xbnd8gehjk8yxQKzdO4X6kcrAbZSU7SZeTphUP4O3O/GOd4lmKYurm0KH3tRuxvi0RknZ/sG5F6fQIbx91lb8iyQlPBlnjhfTs9NXUCAbmCooUZLu7Ffm6Jq8nVZ1j/8V002yQKR2M8alJEqEVHbesBm8gxKf1O7zRA+d420KHZb64XJ9imjDEXgQJTo6umLbO14y91n1WxK+Kb1rm0KH1G7GcHguxggMjwmuWbe9IufChWWcuFrSvfSx5ngxHVjwI4W2YfC6ihETFSNdtW81b8sozclV0IO7Z8yhQ2o3YxR862DEw6oE1y2cxrv4AqdPFWwZOsfHFDosln2b2s3onlCUvwpBHdyx8Xve5Xe68vAZ1N3PFDqkdjN6J7osRhyEV3DPyim8GxS4dNmkiS9rmkKHwfF/ULsZ3dIqHGVtMsxNM23deLf43dVLzx+93BwLxLJLH9MCUY+MQilX1qO024Zar/P2Xj+4fvGV5RubY4EYRO1m9MdslEXREojcYk9e1Q3vqm7tTg3KMskCMa11aQp8HXEfpdJ9fy8QY0N4ydz+e92UefuDz82xQKR2M/phPUoWVxZUMZQLWzl38stx9xa2UZW7mGOBWO7FXmo3owOGosz2DbjNgGheqsseiHLxwy79bI4FYl9qN6M5r1Fmug+kycd520i5k0Hu07OFSRaIvZ5tvkBK0AzbTpRZvga8mcvTRokBQHfyzB8cbgodUrsZzbAeQpng89B2H4jj3PKhF9xz6tWVHuZYIG5dG0PVhNHxfIYxt95H4S2P5CVzTwItirupWqE5FojUbgabkD8x5tX/ngjbJ/Bu2w44LWTA+narTKHDgLd51G4GjbAMjDktFSPG+pO8G3cDf7WKNcsC0SfxEX3JRyEapdJ95xxR9nMrcawVsZE1s+Qic2zU9N9AHxCFk4nSuyhC4JZbQ97Nvxdz3+SO+0yxQMw9SScQxZKzB2MeS4iscGJtx7t9a2Fv8vuvB5hAhsU60md8gaSiFDp6OEDoIDzn8N6pbou7eWzV053ll+GeefRSKor2KCnbjb0ED8OLt7XknSDy9v+/QLwjvQwz3pFchDAeJWX7rfj+lWE8EQR0EGxB8smPHnKr0COdloYCeIQSNm8wzm9H8wrbB1UQ/yTIeyv3AnFNDGkGmjYoM7cUJwMqk5fMHT4MwYrYDQ0ryfzdcDQVxIBdyKxFmbeRWON5wEvmXhOK49cOfSReIM6hJBrIff0bKOuItngjasrbZFqO1rJvYZW6si4Qxz0g7YDt6mdhzJh3CuaY7vM+ndf1wjMmbEI/OReI/g1IPUB7+oko81UVd1R5PINuoraRLnOr2x4JVegxgvQDge8SjNny64Q9ro48k54in5MLjFm7VT4Z3iUFuU8oyuHUvs3xR8ZN5k7HtylTvgXiOdKQuwyLQFnBa1Il4bQun+IXNj/rRSok/mEWylm4rdGaDM7K3XAqr43Xi/+0cbhEKpxCOnKHmSiV7jNCNRqe5ySeafu18nxg6pQh0qjwEinJdRJQivcVatck3esh77vJTxq6//i1OnIsED3oS4XLRMZhzFCalkWCwniVAvx/03QKLmxO85dAhf6ppCbXyEN5DC/QNsNwMq9WgJ/WWR/FI9/0NbwKh9ciPbnCJZTZ2al10cpMXoQHaV/fNnDvi3IGV+HhJFKU89xFmZvp2g90BW/hOy5aD/Mxo80SQy8Qd5KknMX2BGVmyuthrL/xVl1bddJzIXSakReIkaQq57BmY0yL93p9jPYnXjJ3hm6OiRePPNLSoCJsGUq6coYyaShbZvd1swXFM/VPT/1MTmCnGicMqcJ+JCwnaFaIMSd+s/Uz4mo8Y7/V1ynxVqd2BxtPhetJWuqXHgMxZiRolJ7GfIVn7i69tR4q3TotzmAi7OtL4lJJNMp5mvBW+hr1QZ7B3+hvpgy3QEwndakjcxzGdJyI1tmwrd15Jv+hyx20x0vLGkeEPitIX2pojvJsvai/nTJPbv2AeTqdslnL4o2yQJxDAlNBJ5SU7bp6XBx4xfPSkC/rdtoaPWpijAXiAZIYl3yUj8E3vXQ5+J68ZG7v9jqeOq/Vh4L0L8LdpDEeKSiV7n/QaxphPV4yt7++q0pbH3+zRu8qbE8qc0xblOTElzbdOiCTd569VI7e57DCVH0vECeRzBzyB8osXNH1thRvSRyerP95XDfvqo4XiBVIaGxsNVDmoKO+vfCYtyiOWGeEyQxpsKCYTkXYjaTGXk9sxJgBjwl698Mt3rJ4kUHSPqxN9blADKCeaSw822FMQNRq/XtiP3eDz8sws1phZIb+Foj7SW2M/e1JGO5flWAEX5TnDaO/p4FmttaIrhVpa8YI+MZjeD+ogzG8MZo3kO7GarwXcjtbTwtEDzpXaHc7rQSG88PHGMUf6byhHDTcin/23AjdqDCPFFeUZJT5idhknI3i3rzBlDTgNI8ZmaEPES4myRXhR5RK9z1KG2mbqr/Bv7QwqNe2f5T2IiwWSKL7ihiUjMPdxjrP6bWbN6AJBp3ukPHZpbRWIfXv/YoElBaxiV4Gc4svb5nsYdziYdYDO3M1FeFQkt0XrEZJ2c7yNJxjavEWynHbDb0GKRionQi7k+4+ZzNKyvYNqwFdk8nrXu33zthzX29bokYLxLEkvM/oiOLztTZDOieHl8wd1Mro8x9yNEuTL/mTSXr/4wqKx68Z1T17ecnc4dHGj4Gw1374Ikwh7f2N7SVKfsQj43qoKm/B/EmG5I9GiegipKprf5P0A4a7vccb2UeDeOnPZ2WopGn9GVuEZ0l+/8GrCYa3/Sca20vcZO7CMhLEQidsEfrQcaZ/4/sRw9nVY4zuJ26DuDSr8YNhNvr7aAIp0GIJPYvh6ko5xvcUN5l7gc3oQ/T8iC7C1yRBS/QnlJTtTAlcZeMunY3e/XJyIboGlUTS4PHnGI4uUU8KZ3l25Q20wNDvRCUD8DWo1DZ9Dvd8lJTtjDBZtrCW8IZ6zKhD69min7eiCTkm1+BvKF9nG3tJ4zDfRbxvoR8MOKqVg9Iv+ihasc3cGryFUun+radELlvHS+b2rmqo8Vg7dGzXWdvTTE9NrcFBKO8fu6xSOS2ZF7L+e40ylLCfptT1VzQn18waPIZybOIbm2Ruy6nOO1JhgEWObdb5I58UnbDOvBosQHHwSPkcl8r76zFc399jvA6M7KqrmtxHzSpB2y8oKdtSLrrzea/xubo9nxOdkv7eR9EZc02qQesulJTtD3J67wPvRb7EAB1O+atLWTUVPZJhTg16fouSsl1VVv8N5Q39ob6+ygzY0GdfL0Wv+BQ3owa9GmP41q+TvB6czhv8HL18l7G1ar1xiKJvmppQg2EolV9brpDZh094w2+ngy8zxZv+cbOYon+mmk+D9VAq3Y/LlNqJtqc8B3TT9ttMvZSdGT6KMehqOg1molS63xotuRuTbvJcsFazLZhRQ3uPVQxEKZvJNJiDkqQ0UP52O151eE7QoqxVz6ol/wxQjMYsc2kwBqXweWEzE7jStwvPDa1xDZoxoeHWYMWIzDOVBu+h5AqmxZrCmaV5L/Yet7FMKfN4WVpLwR8Szh48nz//wYEWUwrBc44PmUmDR1FStrOtJnFnMq+JlTdGAZVaR3+JFzyvtRNfJ3xWkMl3AnDh/LIm0mBrlJTtHeZZZufwXu4DxJa3sj44tlh0Q5fcp9tyih5+z+8BepPSpgmZ71He76eb6dWCm8wdVEHUrZvlV54jeAvGJ2PuUdYRB2sB5AeQSLMETEkUDZY310YXN5k7fJiAuy7Mu7FI8BZMqa5TmzrOvWsKmAdQwxzRYh2Mkga432IyUniv+BGwX2ti97bp11fwLJZdMKKCijVFJlxf53hTxIpnbwwN+t+3mI7feU5ZDlYfv9HtpfGCW5hFxS9toHqBdhzsb2FUGRNEildXDA36HbCYEO7p6Iye7t8ksPm2bNGpTsWaLOvknBgOgK0L98ofJ751MDQY9M5iSnbyHFNii1vXrz/x7qRVgufu067WrVzY1R4Ndf9T0kdJ6HIMDYa3MqcGLbZsnmv6znb12snrB3cR/GGp4uFzkRdcNC8J6jBAmuxBsqUshgbLRlvMipXb1sqjT5Lzy/jUKt/uETxpffu1SXXr5GNVqLcoyUPk13AMDZ4JtZgXr7pc/yxy6ohz6cgXS0R3rx7SbcJx94cOlTsj92vUO5RK93V9LWbGV8UL/+JkdVswY0Zki3518a+7dgNQGZz9QCZNkzk8DqBUur/pZTE3oSq2Lr3f8B73If96nVhb8FTtuX4yJglu4MXjYMzaKHFw3Ec5NrHY02J2Nql56Q/uv5oZ/8MGvTwjeAsmeNHpvGTogT+Dsa2cvKGxH6XCwUubhfhR3ZfrUrt+KtIgOinmZLtKgucooLBkvpAlQzUgA8NkDYzyGBJUrpAC/02M2pcO7zo1Upr//VU8cEvklDpxgieoc9ald8KOl80EMvInScNiOooGT5L+/mKiU6f6qn/q0qXHWMFZaIrH8oODhgkdtRWooOkUKWPCthNDgh6bSX3/5TLKeU31b6BzRrevL37UQC2268gYEdYFGBMdtZq09w/bdCPAsd2HzkcqcAB0RC5Ows09z2coD9sEUt7n9NGB/nwupqdgdqSBSppJlS4a6hdizHdQDOnuy9ePutoK0O/LYjAo9AQ6XlxFtmC4gFLpPnwMye4rkitqJsDcp9uaB2oxZqAk7m8lC4XoOxizHrGJRFeEpZq8gWbsvFxLsyHfgBnEcLkCITMXY+YXNSLJFaWRN7IAq/cfOVvbpME8oJEslCkOcoZjTP5uX1KcPbojCnBNtqpiMIJZCDSaPImiILU2xvwnepHe7HIZR3/e8Usb6OVVBOihf0OeIMhHSdnOopRt1maheOcXa7LsNz1VRgLq+1xCngcxypqkoZXUxmKNUM9/OnL+V73ly1cBOuTRU5IImIeSOTWFjk2w6S/K6xV3v3C5GIxQYoAGWFWOAGiDsh5pQ0pzQDcRLm/5rE2qbntdeQIdA+kjw/TbzqGkbD8ioTliB7TDh3TbPEPfQwaqqFkowexbG6Jsy40nnTnkIKCz/etOuWWA065TYEbby/g7DZ5ZGBr0b08yc8x1IE/v+bYKZDEYkdwCGvJMo8+9VyJKfkYqqYzDe4B9whI34IvBCCQMKLqqGXzqfXdjaLBSDomMtyhw8zttr8KS+Ybbqy8HE17tjD31pXtgaDA3k0TGY5Qb/u2cVW2mIddFG2Hiq7OhZ35TBIYGS0wmjXFxtbBPzcEthhl20NOAImyYgSe+Akql+4wwkhifIS59hz/0ytCDngEUYi2M64IOKJXuf6aUbRU8dmUfZlc9ow+7JUyMDTasAxJQKt1/SynbanBhj3rNY+MPOw0myLoYdfyRKBUVdlHKthp+c96zXZtJMO5TQNlY9Y05/DyUlO1vKGVbDUlbnfbsaSmebnuB4syYqSDVMCSoFJC+VPGN057NluPpFgv0OlbZiIMfjSFBj20kL1Ucddq18bGSDD0eJtQaG2/ktnSUlO0PJC91O2ROd5ZYtVKWsdeAibUAw72cW7NRUrY3kLxU0d75hLXfpRl8JFC0zTfYuMs0wdCg32OSlypcKCwyRJ4t51CgcBtqrGH7olS6b7mC5KUKVwqLyFTk7wRMvHU31qPnPYYGx1LKtjpcKSwSJFP+wyGYgKtppDFHD8HQ4JBokpeqHTKXCot0k+pNACjkDHRIIHMshgYHhpK+VO2QuVbcKVImH8wCirkUw4x4RUsMDRZSpXtVuFpYZJ1ULwPFYIIu3SgDfoySsp1WhvSlBlcLi7SUyw03YaLuokGGWxWl0n02pWyrwtfVZJEucvlhKkzY+YQYYrQfUCrdP6GUbVU0crlH5ke5HNEUKPAM0YG9LcqxibskL1Uku15YRDIRFgf62/DaPH/1OZQneaniRzcKi5STzBcPYUIvUf97UCjtmH32k7xUEePOlqCfZM74BShPMlDn47S+QUnZjiR5qSIhwC0/S5aNdBQo/HRe29bzOoYG/Q6QvFTRwM1VUAu53LEOKP70fXrVaw6GBoPekbxUMc3dHbKDkjkkFyYAn+p5jD3jMTQY/ivJSxUn3Xb1csk8AnS8NVfPf+1LYGiw7BaSlypKqnBm7ZY+jv7ZqLXFWLQFisFauh1hMkql+zOUsq2KQG4XwuCrKWEWS5mmRxzoULI2czlAQXhUtwNEqXRfh1K21e2QLeZ58vCD//7fHxcx/1NlyZ5MtWGicK5OxxdTDEODV6nSvbodsqscR3oUfPaxK2Qf67/NkcwvQC0yM/Q5Ojc/SKlkMVW6V4Uvr0f7Vy3FfVkHsAMky5EvAMoV0eXfggYoKdsHKWVbFaHLOY4M+DoHeQVrXThfLs9sB4rEpjoc2zSUlO2SJC9VbCnLcWSxmCK/YdWHHSqXa0J8YEJxqv6GdhJDgspJkpcqfuXtkIX/WPRHpRllgbtL5hyg4mNddTewkhgS9NhM8lLFK14vyIhkez9jfMceK5l3nsBEYymdLYxsLzE06N2A5KWKA7zCIiXsF47JZ/x3yRqQpwDFYwVdjSppMYYGAxJIXqqI5BUWiWd8aI1lbG+nyOWfekABOU9Pg+J+kIJJ2Y4healiP2/jYRJzc52Re58umYeAKnEe0tGQfJegpGz/SPJSRXmeJ9uxP7Tetf+Ls5K5qDdQBrOONJiBoUH7OwmEWh39QzcH394nMr5Lh8jlo2NAQVlaN++iKH8HSzQieanaIePu/L1wtKcXwvjWK9lqfAVQVK7WyXisaRgajKeUbXWzwT0sd8rxBc7Y/9VrydwElF9ZQyfj+QVDg4mUsq2KMrwnogdvQ4+RNJMomaOAij/E62M04zE0mEUp2+pW57xekN6XeZcYZP+Huq8tBr1wVkeULlowLMRoN9GNKt2rInQgx5H++dxrrGT8NEcuV00ECs1OOhhL7EUEDZ6jYxOq4PaCrJ2q4irP7f92m1y+CgE6bHBKB2PBSBhtQ/JSBbcX5HBVf80Y/dOeSuatMzDBmab9SJr7CJegxzySlypW8FK2c9UV8WV86s+VzF0HYcIzSPuNXvH96Pk7CcR/4PaCLKGypfgoxu9ryeWvQUAB2krrgQwVrkH/9iQvVWzgpWxnhKl9sjI+oR2Vy2ErgSK0tcbjaBYkWoOqdhKI/3+u8wqL/Kk+76yx/SvMlcxlz2FCdKPGw1grWoN7ckheqtjG2+vr58SH1sqMP6WS+SwLJkY1bhw3OU6wBnMzSV6q4FYPO+LMh9b2jBxuyZKWLgFFaZimo9ghOmV7MslLDTZu4uBcpz60NmP8WW0ql9veAYXpfS0HcUFwjdGMMNKXqo2UXTxPFjh5xR72LzNVMr8Bxe8ULQdRWawGfw4hfanB81uOI4OPOXvJwfYv1FUyz/0JE6h1NBxCGbEF77+llG1VhPzM+9DqfIvPFvavVEqy7EGgbK84DSM1T6gGj1DKtirCeEUN/G85f9FhjGtVkMt3+UCxquFntMMiNfgLpWyrYjKvF6Tfb65ctrP9i42Qy3m+wTDB+r1mI6ggUoMFJC9VZPIaPwe51kSC8QntkGTuWwS0ctJsAOcEpmz/TvJSRU4ljidrHnftwoxPaGUl899pmHgdrtkAcoVp0HsQyUsVqdV5yRzRLl75FeOCpeVy4H6giF2okf3vhGnQfwPJSxXteSnbZ11uKW7tZf+KkjUhSAYK2TzZ3kZd20kwIeN5Kdv73KhPxyhVU0MyH+6BidmGGpnfQ5AGgx6QvFTxiJey3aS4G1dnfEKLl8yJ14HyK7WxvpEgDY6llG11tOF58qlbH1oZn9D0UVsMDqCOmsE9NbF+vRgNuryTYDJsU3ieTHfvQyvrE1onufwYAxS3VTWx/pAQDb4PJX2p2jdpyPPkaHdvwfiEtkwuRyb5wwRuH02sPyHk2ARVuleFJ/c4ajW378H4hJYmmSvrwkRuoRa2+wo5PtiM9KUGr0ResgPAljljvREkmS+BakP00iLT+Z4ADdbeRPpS9QDczXFkxUiAu7A+obWSy5kbgIJ3pga2/yFAhJtJX2poxEt49INpYsb4hNZaLm+GAQVvNQ1sz4bX4GHSl6q/UBG8D61AD2XGJ7RdkvlzCEz0ttPA9IfwIpxNAlPBmHCOG8NnAd2J8QmtnGQO7QYTvZ01MB3+UH0XEpgKYniFXiOGQd2qA+MOkhX+mQAUv8PQLQ+D/0PYkRTGJ4FXmqgL3IdWK+MT2n25XHocKH5boFsu4EDvQpIYl9W8lO3DkB9a99m/xznJnNoSJn4H4z+RwTXYmSTGZTMvZbs/aHXePubYQHtm1OVUCrgIm5DGXNwp+YfusFW/qtq/S5xkVfDawASwR31sw+GbMQ0mkXHg1uc7DZy10ZORwy1Zi55UoAhG7x7WEVyEo0llDrG9xM8h3mr/Rt/L5VnPijARXBnb8JEkQuRIWcxzoABpMI5q9JPMt7thIrgxtt2jwUVYkoTmAK+rvBWJiGwyRnXnvpI59wVMBAdYDS/CG6Q0Nr68AzfeQproLjTH16RIoBCej2z3MnARNiapMQk9wztIc0/MjYfbv12eXO69ABTCQ5HtLg8uwiDSGovoshzfFYsRdGdGu6eGkjkY6IB6d2SzN8NnzPxIarNPK17KdmdhLcWr2L/hVsk8fAQmgmsim30fXoR/kNzs8o6bsi1uicYogxQ8QC4XnwcKYeS+0g/gRViO2jDZ44AfryZILXE3T4qzf8+qcvn4V6AQTsE1W8ApCuVfpDg7rxy8amAPhf5VqoOVF6ApNqCDeenIdq+CF+ESklwR9vtwnDbHS+j9GdVN90nm5iYwEXwR2WwBJ+uVoyS6r+BuQl8XnEx9y/5t/SXrogxUMcknBNfsgwJEODyMZPcF03keeyNaDKxlRwe5HP0bUAQn4Jo9TYAIla7Upv7zlcoOnr+Wit/LYpRBqiaXq8t4wwTwa1yzx4gQoXSNt9zByi1oh/FRh1EGqZ1kzo6Hid9EXKsDawtRYRUS39/EpvFStttimMEog1RJMm9/AxO+foG4ZicKESEVAP6bZoW8lG2cj1KsMkjJcrn7NlD45uCaXSBGhB6RJMD/J3Qgx0/++UiW9LV//xZy+Ruq2+Y2XLMTxIhQiTtAErRE88pC+6G1CXxmjmoka2Ci9ymu1SE+glToN8r0Gswcx/FR3+ZotjDKIPWQzOVAbR1ykc0+K0iEStBxk2twBa8S5neILcUZZZA8JOti1xYoeGvhmp0uSoTKWHO3zH7MS9neiukfVhmkfLmcDvXJDTnrK0WYCJWtF0yswaq8lO0M3Jbih+1bcUUurwdWhwnducibB+JEqGSEmFaDH3jJG4XIRWbPmaMcSX+gyEU2u6ZAFTb2NKkGt/Eq3adhe4ZxfjtAshRDoCKePl64ZncXKELlrTnTSLmhsADdL6wcbsk2sQ8ABW5TXLPLixShstGEB+1t3OypnRp4pZx9U8rL5XsvoE9uU3HNHiVUhMoU02nQuovnk+lamMWwqrtk3h8IE7ZdkWMmQKwKvzeZBj3f8jyizR+f1vaNqSmZ+3fCRG0p5HeVn8WKUJlmKg16NealbK/XxrBWDHu2yOX/y0BRWwHX7CuCReix2kQaDMvgpWxr1qaaUXPxg1wTUA8oaufhmp0vWIRKxe2m0WC9EryU2tma2cY42Zgu2RR8BxO0h3CtbuYhWoV+70yiwcwIXkKthl8ETtk36Yxkc7AYJmbLIpu9SLQIlaAZptBgTiWOH8K19MNexndpydKafgeK2dK4Zp8WLkKlphmSuWN4iYsnNPVCLCOHW7Jqzc2BQhZ5J2O9eBEq5UKl1+BEXsr2RY19sFtHXy3FYQUqaF0D1+xkBBEqA+tLrsHxvJTtur4aW1jDvl2TJJuISTABG49s9h4MFf4pdzL3I9721k0vrU1ktLJdFSjXTEyHideoMrhmX8cQofKtzMnc13ij/yFJcxtDGaY1l2sq/gUUr51wza6CIkLljbTJ3La1vLG/1MPYGa1sf5drMkKAPrmdQt7WwxGh8kJSDVob8kaujwPsjFa2iyWbjjMw0ZqGa3WSP5IKr0mpQc8s3rg76sNQRivb7ySbD6CySUHIZtdBEqHSWkINevGqmHtM0ImlrFa2teSakA9AwdoK1+wpWCL0aCCdBn1387bZdJPAzmple1muGdlizL8Yt7BEqEQlSKbB0rykv1U6GjGjle1OyeakJtBGIq7VYWgiVPxmSjXfm7gp2zE6spbRynagZCLMggnVcshml8NTYdCvEk33mHBeyvYYPZnLaGXr4yWXCKHKJiG3nN6IJ0IlXJ5k7pggzlgjNunKXlYrW8m690CVTUI+fw3YNjuqB69ozSdZkrkTeLnCi0rrzGJGK9uRcokQqmzSOVyzW4FpcOwWi+fm4Y7/z3s52pCsjuL4Yrev3kxeat/Q/pItCoHKJtVBNjsISoSP/rPRw/l0VihDMvdmXnpUov6WWg3sW1pdshxuoLJJcchhmgYlwr8aovFqb/YzfjJ3R54nsnT4pCnNsHWMXCKEKpuUimv2MigR9vzrerYFjv/bLpvsD9uGunzOlLVv7Ai5RAhVNgm5Zm4nKBE2+u/i+Jnj/7fU0LNse8nzw1p9PmUYz8ZsyRaFPWCCuR+u1WWigET4v8NpsYWO/2MbA89x0g88N+h1dCPsm7tGMhEClU0ajmx2PJAI/6kl22ygii0cQ+J1k5ciq9uxVeC8wEgCVNmkhbhmLwUy+5t/LhnqOA/H46hBZ9i3LscH3uP1+x5dyr7Jt+USIVTZpDxcsxsAmf15j9Nox5m03sYsthd6keMC/4k6tr6rjEv0olSCieaGuFY3AhLhF3mIMxx/fgzoYMDpjT7B8UD1VD2bP9W+0fGSibAdTDTfQTZ7DZAKv2i2MMrPcTL3LMPNbiteynalHF3b35TxVlJGLhF2hAnm4J64ZmcDifDLHqezHVfOCDdaY65RvNSi3Ex9D6A4I4f7N7lE2AEomqvimt0WyOyrX1420nH/4hPGSuae7ccZfYnJeh/CQ/uG/yGXCK1AZZP64Jo9BkiExb76Sp3n+L+f9TXQ1N7nTW1GmO7H8It9y5tItijcBxPN+3CtDqwOpMKvD+1W4yRzxxpmYtf7cIb+swFOxx5V9+w0On1ggrkXcvJhIpAIz3994cqO//8zoyRzcw9sf2uEwyHrVD47Dc4GoGhGrsZSAGT2riJX5iRaHjHGQ5jb42CXMZ4muSqfncZmQDBMNFfDNXs7kAiL1sexcbqn/mKASbXt4OYKGeSFjrENfkSyReFWmGhuh2u1lw+QCotuTnh2deazhi532xbwRl1glOhkbIN/kkyEDWGCuRKy2e+BRHjLjsAPO/7JPJ3PaCzv0LPHNsNEJ2sb/IJcIswDiuZhuGY/ATJ7rZ1r+zo+4eUxXtcT2qyQl7I9yDjRydoGj5RLhMeBorkFrtkpQGbXtXfx0o6r5Hrf0/F8hmbwUrY3GCk8+9sfhGw9s/rCRPNgXKsnA4nQ3+4u4SbHSZcBMbqdzWjeGt/vsaGic6T9USyRTIT9YKK5B7LZY4FUaP9wxI/FHCdzV9DpZGaO4ww3aIWxopOxDV5Rsn7m38MEs0d9XLN7A4mQ8W0lppfjZO6VupzL5i05ox2babDoZG2Dp8olwlSgaG6Pa/ZQILOzGNe/5+3wZ2X1mMzdiZeyPcR4Vf0ZdUfayCVCz4ow0VwZ1+z5QCIMZ93gqONSdBf1l8xdlZeyPdCANf13MvIHJVsUHoaJ5sa4VkPV8FeYL5aPHP/uY3GdzWOKN2ekhb4GjM7L9sfSUjIRnoMJ5gDkbMTGQCJkfzVr4/iHafpKv2zLKyKbZsgD6bUYozkulwjvA0XzfFyzKwOZnc6+RQ3Hv1ygpwTMkbxxZhu0mj8jh3uCXCKEan07FNfs9kBmX2TfwsZphThXN3No41aBfGLUM3hP7Y+nm2Tvo59gork7rtVQNfx9QhwsPN8aIxHa+oY3yruGjc5tjI1eyUS4CyaaayKbDVTDX0lwtHXMWXnqozmJ51veGMsbNzqbM4Y0QC4RtgaKZuSPUIOBzHb45yzEcSqmx2UdzJ8Xb4/KJ8/A0RnI+Pi5QS4RQrW+TcE1uwWQ2YmOV8wlHCdza1/BesBDXn6ssc8cJKo//2JkignfZxQBVA1/TuvX6O8c/rqX1snc9UrwUrYPGDs6Xztx/sXANBG+zygEoBr+CicbO9PxOZNiP2o6d5kRvJTtVwaPzgTG3/ckuUQI1PrW0T6jCIBq+HN3V1Y4TskM36Th1OV05qXlGb4yWYiPM+dfDAtU69sEXLNPApl9iHejx46TMiO0S8mMKcUZ25otxg9PRimTk3KJEKr17Wtcs6Fq+J/g3mmD47TM5VolZU7kpWwvD5UgPBmlTK5LtigEan2biGs1VA1/hR+pLRxXhqyrTTXro7yU7Tq+MkRniv3B7ZFMhECtb/0Ccc2uCyRCFVv4nIrWTbRIzDzPyxm66iVFdLJKmSTLJUKo1rfNcc1eC2S2mrJBnJrW2fipmdd4w+otSw0IRimT/XKJsDRQNCMXtISq4X9Yzc04Va13Ys8Z9wl0MFCW8GSUMjkt2ftoWZhofoprNdT5jzg1fzJs2XpK5rbe4A2qpDzRecz+CBdJJsIFMNGci2z2ECAVqsp6sXJyGtoiDtwzizekKhJF5wr7Qwz2lUuEI4CiuRau2d2AzFYXsV4fHSdz4+XOevFaw3lMkyk6ravsjzJfLhFWAIpm5Arx04DMfqvudr4XHSdzYwWF7xLOeLwbyBWek+wP84pco7SVgolm5LPmM4BEqPaTU6jjtbM/TjXM0ryTlAH/kmy1xNia/lOyYXaFieYMZLNbAqkwWeX9tjiuj18qB2HMm3gp28ViJAtOyz3Gw8Yq1zBHwgSzD/Ln4TQgEapuZ/NrkON06WThQ64QzkvZ/lE2DVpCGGkJ7+Qa5mygaJ6Na/YpILPVt7OZ6fhIRURpwSPuEMQZSkSyRT7O2B/rJblGCdX6FrmP7V4gES5Xf8sEx9nuXcTumyes4oykxDoJNWhJtz/YLMmGmQETzV1xrY4FOv/hTDub1Y5TNuuIfCOP5PUsiPeVUYOWD/ZH+1yyYc6FieZSyDmUQOc/FGdKxWx2fKmb4rYLJvBStid5SalByxbGeFfKNczxOLUioKkBZPZ0Z25aRaNk7o68UbTztEhKTfsDHiTXKGsh1YoAZjWQ2ZOcumtJxxfbIWas3ML/3ayyatDSnZGkLtkwc5FqRcACdf7DyaOQNwD/rqrEls4bQw2btBpktaM8I9kwn8JEc1lks4HOfyjOfWa3chKo4ftyJP3AG8Epi8Qw2lF6hMg1zG1A0Vwa12yg8x/OHoX0dJxC7fEBeJhevLKUHvNk1iCzHeVEuYbZHCiakXOHoc5/ZDurinjMZG7fj7yU7RSL3DBK/d+Va5SBfjDRXAPXbKjzHxHO3rhnCbxk7tCLHOv98yXXIGtXao5kw0yEieZ4XKtt1YFU2Mjp/WTHidTV4ZK5o0/wtpVSZdcgqx3lKsk2hF/DBHMUclfm/pq9Ri90XIe/czLQCGc855g+PEd6DVrqM/IUVsg1zASgaO6EazbQ+Q9XXqNzHP8VjmgEMsBRvJTt3EyLCVhuf/DH5BplCFAO9zJcsw8o2r1GpzouP9wDIpFzNm+tXiLaDBq0HLQ/+t6SDfMiTDSn4VoNdf4jKtaFm+c7roF92P1Uzp94ZcYzLphCg5ZB9oc/TrJhpsNEcxCy2QOB/hTudeXmKY5Tqq+6m8y5nlfp/s8Qc2jQspLhgHpyDTMFKJpb4Zq9E8jsNi7dva3ji/7gXipZeZ7R/TwtZoHRBE6yD6STgaK5tTGfHf1cu32B46u61b6Yu2F9yGoaDVoYmYJPJBtmTZhofoNrdT0gEfZ18f6/OL6s6zkdNu7f+Lk282jQcsm+D95LNszuMNFcDtns74BUuNBFrRxxfNnyLg7Lyk2LLbCYiXf2neAj2aJ4KFA0h+Ga3RvI7DxX1fLM4WWDXTt56smrJBc81FQaZOZwb5drmPOBovk+rtnHgMy+4aoBnoWOk6urunDN+oW8lO0WFpPxpyneB1jPGmc5h2v2CiARut7lp5njzyT+zn/9COUV3vK/ZTYNWq7Y90SiZMNsDBPNdYz57Ahu5rIJoY77Q9V2Nrkz+g4vZbup6TRoyWc4N1CuYVaGieY45I9Xc4D+FLpxHija8c5yJec2fTJ5e01B882nQUuzYPvO+FGuYbYHimbkkzV3gcyu7IYNxx2nWUc40zSueV+OoTWPW8zIIvveaCvXKOt7wETz98Z8djR2x4hRjhOtS6hP5t7LS9n+FG1KDVpOwxRF0DtdNE0+0frZ4V6Xn9mOU613q03mzuelbJ8NNacGLesZR7kkG+ZgmGgejmz2cqA/hQ/csuK+4/Mc/dWtlFN4Kdv7fE2qQUsywyOStd9ooW3yicbPDndPiOY5vnpvNUlmbXl/1Zt4WUwLo5TBbblGOUzj5BONnx2L3bTjktvJ3H/wTHxqNa8GLe3s++QXyYbZGSaaGxrz2eH26oLzjWc05+e2pTwL020m1qClmn2nPJRsmFkw0XzHmM8OpZa7hqS7k8xtfSPyI4oEzGRk8BU3xbPG6eSTnrp4T3Ga8e4aYlvs+AaOEj49r/PMq2ZuDVqsvez7pakpnjVOU9WQzw5lrtuWeF51Ne3ai5f445FnMTv77HtmqjmeNc7Sx5jPDoDVhddhx7dYxljVhT7k2FYx0vQatPSx75qbkg2zECaa9yE/O/xhzPYGqFzsy8l4uGm3Zc4KXnspvwTSoKWqfd8Uk2y7qiRMNPdC3knfB/Sn8DcAW0o7ro+vVB9a5LN97DJeM/qgmSRBi6UnI4d7limeNU6DHDN9gMwGqVy8KZyXgN3xi+IDIdu4HVrDK5AC/w2jC888czxrnAV5I28DkAibgFgzphjvPlGJ5WP+s7Ee+Gteb34/rIhhpL//wGiRfMQczxpnaYdr9QCgZwdQ5eIYVeeMi40bV0lV/fAuoSS/v2BkBp4wx7PGWSohm70V6E/hDBhz7nkrcCzxJfX9DSuHO9QUzxqnQX6B6gZk9mYge456gGmwvxeJ73/sse8jyT7fLAQKHeRiYBOAzO4GZdB5KA129yTp/cO39p1UQ7JhDoeJncG4Vh8HCvkhYBa1gTHotJWU9xlVGEemzfGscZYeyGa3BMp6HQBm0QsIe3aS7r7c8mKkE8Wa4lnjLB71cc1+prusV9tGgBOONtLdFyQxcqP2muJZ4zTtcc0GevtTSsKZZL3urjElipPsvqKufU+dkmuUnnEw0Yx89m0vkAgLIV3pZjVlnxUkuq9Za99VaZINsw5MNDfGtTq2IozZAZAbIV4ZbtlymjRXBEZuVEvJhjlFh9Gsgt1AfwrfQRoV5k4Ckkcyaa4IrNyoGXIN8xZQNCOXan8BZHZ5UKuic123pA5Jzg6M3Khpco0yDCiakfvnRUJ9HIc1K7Ovy5bcJcXZgZEbtVGyYZbTZTTzCAUSYU1gu+b7uWpJCinODozcqHKSDXOjPqOZxwkgFU7Wy5/o1aQ4O7Byo8LkGuY0oGhG7ltyCMhs8D9A37hoSFtSnD0Y7/eSdU2doddodsw8ILOfQBtWpqxrhhwhwdmjn31vTZFsmEEw0ZyOa/UsIBEOBLdsomuGVK9PirPD9+bYS06DieaLuFbbSsGY7QN/fs/FXsJrSXF2SLXvrLgkuYZ5CiiaQ3DN7gr0p3A2uGUu5uN6TCTJFYWVVxkj1zCh8jCRS2VOBTJbQEHnJa5Z4p9PmisKI6+yilyjhMrDfI1r9mwgEV6FN228q5lrfegcRRHO2ffVt5INMx4mmhNxrfbygTFbQEHnWJfXq+OOhZDsvuS+fU8Nl2yYNWCi2S8Q1+wMoD+FAgo6u1HEzq/3eNLh57DyKhfKNUyoPMzmuGbvBDL7PLxp7lU2j+o6ohaJ738w8iol61oFlYe5Ddfsy0Bm7xKwzHa3ZU1wxlQqhf83jLzKG5INEygP8ymu1bWARCgiGfhnALvWfPMb1V6zMPMqS0g2TKA8zFxks3OBVCggGfg1jGVBh1ZTLWBGXiV2f2jRQOVhIq9kFgOZLSAZGKpljaLEpbUubXIVMupbVpVrlFB5mONxzf4dyGwBycD1FECCd5+aYWYRMvIqS8o1SlsxmGiZi2t2c6AgryvANj8FlnIv9gaaVYSMvMpCyYZ5FSZSMnCttq6CMdtfwP5HFwWc4Rt/MmdCDSOvspdk21ZAeZg+yLsIk4DCuwO8aTcVEfTqNyHMfCJk5VVK1lO8qW5PJDhkOpDZAhoN71IE4VG3ykKzqZBR3/KSXKMsDtTlciSu2ROBAjsL3rQdikDu9Olgqq4VL9CmTVMewkRHV1yrQ4B6c3aGN+2KIpZKp6vGmkaEkWjTpim/wIRGKeQH9BmgkF4JbtloRTgB19cPMIcILzA8MEyuYR4FCgzkhMeDQGYPArdsioKBT2G1TWZQ4Sf7w28h1yjXAUXFCFyzBwGZDV+k6omCRZfKo6RfIDK2uQZLNkygPMwFuFavBApk+CJVvRVEnr+cmCS1CM/bH/dyyYaZDRMOZZHN7gz0Wgd+jvZPBRe/7h985RXhr4zPNZJViWwLFAzIycZZQGaDF6kap6DjPWfoFklFyMqrbC/XMHOAIqEBrtmXgMwuALYrRNGGi9PlbPfbxP5wK8s1ysDaMFGwFNfsV0DBC12kSkUK0okFpwblH1j9qE9idVAdjnuyXb6zwMvsj3WOZMNMhAmBeFyrrb1gzK4OfERhJOd+Ja599uZobfrNGlAdlvrhsmTFojoxPpVK9rgpgJn/qDK4Zhfq8wNnHYc3O1u1yEeFCn/EB0PqMKp/23oSRWeZKPvDnC+XCBOAZr8TrtkldfmBM9RRPl3ACPt/dhs9ahIH+gdx4Mgx0oQnozbuULlEGAJUS3cZrtlVgQL2EKhVjno+dslk/85r9aGWoDqMmNtUjjc2Rm3c7nKJ0PIeZtqb4FrdE+glDvYDp4NGV42bcXbIOtU4AarDYgsaSLBAbGB/cDUlEyFQolUQstl3gGI1FNCm4uzXyjpqzj23OrXEA1KHcU0eNTJ4dJZmDG2yXCJMAZrxVrhmNwQyOxLQJnZJ81y1dfpCp6X5Q+owOP5UK0OHJ6P/cYpcIpwMNN2tcc3OAzL7BaBNzDquPu+c+Xsa+WY46IvpiRqdjFss6hBW6r22jIWZ6l24VmcCRehhOJOszAbkzpajC0ydMgRUh33fRBq0WNQ8rNR7bQFK/C+HbHZfoHWTJ5hFzHSZ2q4UjT5+rQ7oAtH/2eYLBozOWVip99oClYeJXA+sH5DZqWAWfcO6RQ0XLxg2oV8ApA496nyfabToZOVwJ8glwk5AU3wf1+xrQGbD9V+OYN3CjTJpZW512wP6Yrp1bYyxFog37Y/jtVwi9AWa3nO4ZqcCmf0WyqAxzCMO7l03sEOfO6A6rNRwg4GKRf2Bk3qvNUB74odxrfasCGP2HiiDmMnbAA/t5JMfQReIAW/3G6WaMGOl7SdZdwCgg6iAWxyqWAIUkMlA9gxk3QCmk3HY/uugC0SffR0NUSyKVRs3h0QodotDFS+AzAaq3cVsyATXvjG26unOoC+mPa680n+xKEZt3G1yiRDq0/D3uGZHApkNVLvrd6iPhI43C2de6QGqw/CD7T31HZ6M2rhPpdKgFepAWz9cuy8Amd0Fxhzm6eim0APfVK3QB1KHflmD9Fws6rboFww9cBwsLQPZcKBTBzC1u5pFsTLbRZwpGrA+C7QTok/j8iv1Gp+NGDbXkkmEH8CmErlt0BEgsydCGMPMgz8kaPSe7Q8+B30xPXP3gT4DlFEDZLxMImwINo15uIafBzJ7OoQxvTGOaXy9QBxVeTmoDsemJ+iwmnA2wlpbYwLhNtwa4lo+C8jsSQC2JLGq1vkLTpxeWb4x6AKx+uIUvZXWHWHf0gyJRHgLMCUK13JWWqHTGxMA333vsS7+TLwffAf1rg2pw6jE33V1ZpaRioTdH1okc+BmL7gnruk3gewG+Jr+knXtCSieSLqXPhb0xXRgwY/6eVdjFGidLY0GEyCnbiKu7VOBzHb/u6+tJmvrFS877MHdi6A6zN05WyfFovrbN3CqLBosA5ob/Aeu8U2BzM5225JRrEt/RHVI9LFJUZDzWSz7th7O7TGycrvKIkLYHuvI3cRZaYXOEuG2JZVZl+6IPaHNUhaDltePuzpvndZBOtu+aaUk6c94HlSDyglk8zOA7Ha7JhkzlUyLHGnr9h3fQc5qcPyyWZpGqRdj/7eCFBpc7wErQm/k8yVzgex2t6fUJsEpcc7TvOA96MyWXfpYw7NDjIftCAkkaDsFrEFFQe6DcBTIbHd7SnVkXXi0htM7uW1/0AViyyOaFYuai5uMhMiWmwo4yKeZagGZ7W5PqX2sC2vcuCRkfHYp0AVi2rRQLcYxnvHn2egSvFAyAF6D6Pl8uUCfp90r9xDGylkZq/08W2fPjYCcYY8l146jD4L1sC1tZAWGNejur4hgM/JAngLZvdctK5iFiJ/oY7rHjMwA7b82ZEpqoC4etg2MKsDjExpuVURRDXkw24DsbuOWFW9Zl92um1mvNe8qaP+1Pd1uldH+YbvUgPrzTP2+X19FJCOxNwGB7HbrPHIZ1ot9KV21JwtpsKAY5FwHfJsXpvHDNt5gAgy7f+5wRUU02LuBgUBHW906j3xLXCYO9AKx6dKyoAvEjyeTUQzPYazlyxhHgK1a7yqnoIC+JZ8IZLg7lak3si56W4/BMGsZbIPuRSVnis9cCWQcE+lkCP2V6bQsLUhBYxn2+KYDGe7GeeRAVqGsOL32S2j0KA10gRg+OD9Wm4ftMt0LsPTqGvFRCiroqZL/AjL8husmMEuBN9FxbBSPPALaoHtVuxZCz7EVGM/FFtuseYfKKvj8jr7bAHSsfJHrJjDrn7bW9zM6sFMN0EWKz8+XxBWL2m7/nkG6fcg1ndq1lKINl9FHewYoSbmZyxZ8Yu1aGOBT8ow2sA26l4+ej/uw1WMb4nVH52Z4K9rRFH3E6UCW57u868W64mGLIQidltYLMgRqpt8TUSzqvSHeNgJz2mbnKhqDf+QFqmDjFVcNOMW64vcWo1D8p42gDbpr905pBm3jE/u32qUfL4ZsL0isreiAnuhDXwlkeWNXDYhnXXGhxUBAN+iOmnQsGtTAFPv3KacP99VLefLeR9EHWqyTgSrgBriY3dKI9dHtjsVoZFapC7pAfF/QHDDMGTfRvMObdcWx3uMUHbFbAydkAdnuYvnpeazrlbQYEOgG3d/tPACVuscoFnBfS3eFTLw7aZWiM7TI07oEZPsx125/lXW9VxZjUmZDw0qQMVEqezxI0sJi+5c/p5WfVg5KP+Oh6JA2GjjjHZDtvV17FrJST54buAqRDbhBd8WuI9zv3vK7fvagraPKZz1X9EqCFh4Ben/6zqW732Zd7qXF2CR33Ae50xD8cKqbZZkYB2YqIndXbJZ/5c8ARccEa9LFoBDIepce1tmsq92zGB7oBt1rvnnsxgLRylh8IVZUSV5/uoeHonM+aRIrJYGsd6U0h5WVmlQ7ySIDsfmDw0G3zw+tdrmDxCQtP8daO3RsV0kxAm80CZR8IOtdabV1gHWxxRZZsL2CbdAdl9batXw+xoEZ8f2hB1Tts89fMQofNIkSX6DjcQ9duPcO/STRimRTtZ9BF4i728xw3oj29i8mtj/0wryGW4MVAxEcqk2IlIAx39uFqpqsStdRIRbJ6NkCtkF3uRfOFosawLhSpqARiy8GI4LlGsXHDSD7f3P6zitYl+pqkRDP9gdrQsbL8I0/OfXcYzwERPSHDrt/rk6cYkS0yhHJA7Lf+WPazHP9IyySMn80aIPugH4T1OedMZLDngIPsdW0jeUUw5KjUWAsBLLf+WParIaAwess8rKy/BzI03Iedaskq7vxWOEb0bF7T2EWg5HmA8W/ATqH43T6+RbWleItcuObAtug+06fDvwEIxurVEsKyJhCI9GLwUj0NmqxfAs0Ame37IayLnTKIj1J99JBzw50Pl2VUyyqlbBH3r+LwZxQpCBTs4D4HmgE05y8b2MoNRuUFdPPgi4Q260f4OBuVZg/vOXGGIo3nXqzmCILH7ULhlSgIXRz8qWM9e2snMU0ADfo9imsNoxxJyu7bMQQFwsurrv9y0NvRSZaaLh3DrSbPMS527ZgXWeKxUzUv/wDaF2xLpVH2VsgFjj4SQ2njQ4cg1YMxmNcxnukjLegWA3j4DBQtsEAp+7KPE4cYzEZ0A26a76c+PWW535HmdPBkc5Y67W9ILE6jir6PrvW4T+l+kf1wLjday2D4BzQIKo6tZ/NyiCpZLOYkJyCgZDx5Nc9xfefizf7hrOcVPvcq5eyYyBOMZjgEg3zPuvk+CPCLQM0rfVxX4sNXmbi+GmLSakH26Dbu/HI7ZP//4FWuv0T7taJH/9Ek3XF74u/w/kDGND4Sr7vl3cPQbjtL5rO/gWgURQ6c9PTrKvkW8xLyO1s4L1GP3V/uOIc7kmE/Gs6VjGY73ofm2914pENR1wtbef+E8wwejlx6NTWmRU1sRZTA92gWy0LGCv6LR+wisF4P5w7niWEfeJv30fjid8FNI536m85k3WNLAsxZmo8/gGgYtW+PjD872IwNZE2Jpss+81BOvojhOH7ajzprYEGUl79LfuwrvGBNPifj3DADbrVUOqXf85HNcuv3BinGEzw1m6bZ3C+ZIvvz6tc0nrGfwUaSHf1t2TVI4vyJQH+dyXW4BB6OnSpxB3LOnYsmX0H5y9xQGHJqvwPWzkIOTnLNe/NbgMaZU3Vd8xkXWISie/zF8LHS7Vo0YdCze7lR6mK/FSEFhUeM7Wf7CZAY5ms9obMTMbfSXlfMWvZ7mDJ9OczcEeK6lDJxyhQs1MHE/0H0FhUH4upw7pCPVJdUUq3TouTRYDFbk5t6kzJuBSM9NSyeqin8hvQYJ6o/TLJ2vTOIMXZp3jkrr6GF2C5N61/dTIfagTG55Go+XqY4jJAj5uBKu83jXWBqSQ3JoF7Xxi3cIT/vrUbXEgLW4ZiXDV9TPBDoJd9lS8aaawLVCCtOWRGm8MehhPg86xLM13afLTVQLHvW51kK/8CNJ7Z6t6tWGvtsiQz/qv85me9DKM/n7PpKVtc3hveiGLjRS+dzOxtoAGpe52MZP28BmlM1UMMuEG3oG+O/Udud2fDw/M6ipnhutkLXAc0InUVQ4+wfr6XBKZ2gRizdquOBXjiyKNZbr7kec1BsdRvhX4mFeicdDE1nre2ZPx6eCCpywmgG3QDbcHUmXL/gvuDG/AQR4N6OkKeDTSoWSru9Zj1440kLCcJy3urp3Z/ldp17ABTx7ReCfNp0LINaFTnVdyLec77FqnKeWKBG3S7ugVz5uWgYXB/5HGOcwW909VU5gANa5eKe61h/DYgliTlEraZJRdpKcDaia8TQHNOcnAeK+GtdLbQB8qSVVGvsALrt9dJTq4D3KBbfcbXghFjoJfyMTiFpE5E620SE4FGxk+LGMn66XqSknsLxPXtVmHqr+KSF5Ei+vlNxOkpejFUdzP4GmhoP3HvlMFaVQwgHbm9QARu0M1kz9sqqZ5ixjAep6LwRx2eXE0AGhu3dG891i9/Jg2BLBBfVe4iNHo9ugxenyzO/kc4n12aeOlw7kKAVhR1eTdqy/pleRIQFMMu/Sxmgeg3afrE+kJNb4PzKv3UqsuJuwj0rZY3OubicwuJBxDoBt2KEpG9LUd0NoXtHI4G03VaYTodaHwdHN+mPqvA7VkSDjBJE28AFampGF+jQSMEi63dcDQ4Wq9TlgI0wGou3uY1qQae4tvGujufffu1SUX6gOvZDkeDl3Q7X1uARtjO8W0Ws36XQ5IRgVcf11eHHotO5y1ENHUSTm5Pno6nqybMGDs7fkVifYfNJb0I4rFL6ScBcyrnN8NdxcbjJJhH6nmyugONcqWjm9xj/eoXUosokp1NxPTYV20++u7hOqSU7QO6nqvyQMMc5NL2z28kFmFEP3dm/oaPrmeEJ4UUKdtFGAW1/evKO2+QlbQijubqE8H6diyuhYU5OIk+ekvZLro/DHQy7aKDe8xn/egIKUUkbdVuWuzUJpkrphiKBvWXsl2EP4F2nxycaqnM+lEkCUUktjrqzsC80sa8ezilq3SYsl2EK0BjTWDfgpXV2Ks4CUX7tcbGMtoYd9S8KdtFgGqHWsC8wzDWT/qRTATTlTtt3uc1Mu28iVO2i+AL1HgkkXmHaqyfTCCVCKY9d+8+QSPLrpk6ZbsIQDUSqjPTfAtZH6bCSCWit932cPbuR2m0Wl1r7pTtIpwGGjCrmH0YK4NqH4lEOG8cPzg1yhq03jB5ynYR9gONeISz169GGtF2cv01KrvsmWX2lO0iJAMNeQHj+m9ZPxhGGhHOGEczNl4bm7wSUSSo65TtIuyBGTSjr0ssKxugC0lEPEkOtt1KarQTuBtFg3HG+gj9FmjY9j+K3jL+C7uRYSelLNFm47ARTrFUv+3GmqcqQOO2/+hhHpt+QApBYBzz1NImbRY/SCnbrww2TzFAA39h7+KBrJfdcSQQTUV4TRNzfkRK2f7VcOuGOJiRH7Z38VTW/95BAsGAVWO9nCYvo0gp22UNWD6sDszQK9qrC8sspLWdBIJAfZb7L2thzb9wmkmdCTXgTE0BGnyqnWuXY/zfUnSUEIN3DPdv1SKVpAFOynZdXyPO1E9Ao69S9NIzWP83mwSCwTGG+49pYMs0nJTtm16GnKkwoOG/LXrpU6z/24AEggHj81OUBn8sqqBIUPkhyaBTVQ5m/HuKXpn1YTbOiwSCACtT4ia+KSUpZdsxb4A8kPz1hRuxEjbSSCAYsDIlWmMbYh2Mo8HKxp2r1kAuKNJr8JGilygwJxsZh8hKI9vh2R1Hg0Y+E9AKyAeDv77wTdZRwlASCAKBfRkZa8h2ePVHkaBHnqFnC6iFyNc52SGsNIA6JBAM9jLc3wbXDN8llLKtgiZAj6KvutjdduJjBgFPDYb7j6NaUboHpWyrYRmQIyZ+edls1Ts4hAjK2vf+EFQjhlHKtjo6AXli+pdbYqxMwRKkDwwqMNy/FtUIStlWSRmghKJJX1z1gM6Ok5qNkQz3xyDa0CEIRYNlZej4DNSgatUXJdd2sv7bOxIIBhn2vV8pEM+EhFWUsq2apUDeaP75RXMZ/6mmjQSCQD2G+xvimbA6ilK21XMbyB3bPrtmc9Z/ekkCweB3hvurolmwmVK2naERkD8+PxzxmvWf7pFAMGD0oQ6IxTLgJKVsO8caGIdEfHbJs4z/Uz2JBIKAL2Oz7TqWAZSy7SzZQC5p9L8rRjOfXCQQDD6oTfAVQ+BBStl2lrZAPrn9vysOZf2X8SQQDBhlrn0GoNzdszelbDvNGCCnLP3fFecw/kdUCAkEgVg/++7/GeXuXlcpZduFt4faMG6J/9+ShNUHpisJBANW30mUBg2+dVA0GCdbq2egBgFx/911SWH9j3kkEAxYzbZWItw7dDmlbLtEAZBnOjhekijBjUggCNgq2Xf/coR7r1yDokHjp2wXIQE2h9uXdZRwNwkEA1ZZ9bvibz2LUrZdJcQHxjeL/rocsx3yKRIIBqxasuI7gMyklG3XeQ/knf+UAK7P7Lc2gwSCAaOA3ljxb1R+lLLtOk+A3LPk30n6zOJaQ0gfGLCqBj0RfePIipSy7QYpUA5q6GkdzfzHtSQQDFhFlxME33cCpWy7xWQwF5Uqxt88JYTCOB8qugNINUrZdpOxCO7rTEcJMVgXrEnabmVK2XYXjAKtp0kgGIzQIm3Xlk4p224zFMGB+SQQDPprkLab9AOlbLvPfIREI08SCAIhUfhpu143cVK2J8g9dVbxfVS7k0AwuMxw/whxt/Sti6LBipGyz11j4T5MIYFgsJiRtltL2B1Dz+CkbCdIP3fCN7eifEkgCCTV5hwzA2dLWZyU7ZnyT16+aCcmkkAwmMhw/1RRN/wVKWV7lgkmr5nodIdtJBAMXjLcLyqG3+GkbK9ZaYrZE9w+J7geCQQB23PGuQNB9zuAk7K93CQ9LU+LdWMGCQSDVwz31xBzu0h/FA3WMct+wnqxfpxKAsGAVe+zk5C75fmgaPCql1mmL1msI2eRQDC4Y9/7LYX0gbmEkyaz2ERZHpVEOvIE6QODhQz3vxFxs9E4Gnxpprz/6yI9+YIEgsH3DPffF7AFhJSyfcVUEyi0hcdeEggGh+17v1dx8DtZn+JosKO5JrCDQFcODySBIFCa8bH3GfidvJpQyrYIkgRuN3cjgWBwnuF+8FD23Ucp22IQmAu/gQSCAePPk0cY8H1Cz1LKtiDWCvMmXm9KUxPCKLr8Efg+0Z8oZVsUt4S5sx0JBANW3/OTsLeZ8ZxStoURJsyf60kgGLCavSaD3mUUpWyLZIggf/r0JIEgYC1l3/2LQO8ym1K2hbJRkEMbk0Aw2M5wf0nIm9ynlG2xTBPk0aEkEAxYvQwgu4jtp5RtwcwQ5NJoEggGjALO4YC5l+UpZVs4YpbcZ0kfGLCqVh6Eu8VdStkWT5oQnxaQQDBglepqD3UD2w5K2UbglBCn/kgCwaALI+0EqoGKNZtStjHYK8Kp40gfGGxiuB+q5nKZNBQJmi5lu6ijowS4tTcJBIOODPd/gLm8byGlbCMRL8CvVcitGHy0731vmA9uoe9RNGjGlO0i1BDg2KPkVgTCGEcJJ4FcPbocpWyj0UCAZ5uSWxHYzPD+MYiLH69JKdt4lBbg2gfkVgSeCUyUmE8p26gIaO4RQ14VT3FGSud7gGs3pZRtXAR8C6pKXhVPpLhEiVuUso3MCHjvtiWviucQw/k5bl+5hTelbCNTAd69O8irwrEWs+/7XLevPDSYUraxCawO7t/35FXhNGX4fq67F35NKdsa0B8+EWkAeVU0cxm+n+3eZW07cTRYkmbwC0bCu3geeVU0ufY9X8zq3kvuAhwNnqQJ/JLt8D7eTV4VTHOG5xe4ddVYpJTtzTSBX+EloH5BJ3KrWKYzHN/AnYs2w0nZjlpN81eEgfB+rkteFctF+36Pc2fbP3QgigZXUcq2HZ4I8HQLcqtIVjLc3sSNa0ZvxUnZ7kDTZ4cUAa4uRaWeRMIqv3Te9UtmjsNJ2a5As2ePeiKcnUH5EAL5077Tg0u7fMUVLVE0GDGMJs8+Qp6BVykjQhgDGHtpS1y+4mOclO0ulLLNorcQh/9cnzwriP0Ml7dx9YIbcFK2D1PKNpNjgk6L0blCQbxleHyGi9cbhJOy3ZWWKGweCHK6z9Jm5FwBlAmw7+8hrj6EPVA02JsWKA6wBojye+1zC8m94PzE8PYU1y5XgJOqdjCQZs4RcwT6/sxdeisF5g1kRQPbXErZ1gWjxfq/5suJSeRkMAL72nfzHlf+1FiPUMq2PmgvfA78ug+inTEgOjF83NCFa3n2o5RtnVAfY2Xu8/Ml+lILwVKGgzc4f6mQPyllWzd0wXknUbpUHkUnqt1ljX3fBsQ6faULGZSyrR8GK2g8H5wfSw53gzEMx153+krRdyhlW0e0UDBZ1W49FcBwGVYlhP3OXijzO0rZ1hObFGR8Cjsmk9tdgnHqz8fZ51rzvpSyrS8qKfgsKjmTFohOM5nhzT+d3WOllG290U7RhM6nN9AC0TlYib6XnLtMVUrZ1h3VFK0IeJsXRv5XDyu7ybm3vg+Usq0/Oiga4vHxZCZNgTp8GepZ7tRV2lLKtg6x+ivasnVtDCX4qmAQw3+jITZYKWVbW/YpmrOn263iNBEcshjOm6/+ErZvKGVbn1RW9ECvZ5sv0Fw4IHaVfceNdeKlZxelbOuUVEUneNS5dpymg7mpyfBauuoreH5LKdu6XRRWV/RDuRd7aTlhlxsMj6nOzgz5mVK29Us7RVf0fRNJC8QiBDKSKqqrPa8ZRinbeuayojf801qXpnlRtWj4QeXvo0tQyraul/x+iv4I3n2qFU3NP5xj+Omyup9n5lLKtr7ZqOiTE0sfW2l2/uITYwUWourXOXsoZVvnPFZ0S9Ch1ZT/9P+0Yvinv7p32dqUsq17zio6Ju7mvHWmn6FlDOe0VfPjfErZNgD7FX0THD/V5IuNeIZjaqn4bQqlbBsBz86K7lnzy2zzLhBrBdt3ykMVvx1BKdvGoKNiBIpl3w4x5/y0ZXhkKv+nf+DMzWDaQnOX2JqKMajYdUQ9E85Pf4Y7uC/ptqWUsm0Y5inGYWDBjyabnfpR9j1RlvdD6xucKalCCgLA+kkxErk7D5jp9SeF4YalvLX+W5yU7WkkIBAmKgaj1A+XTdOLlNXLtZPjn3nNQZkJ7wYkHyCuK4YjKvH3aDNMTRIjr7Cl4wMnAx6izEIApWyDsSVAMSJnp68w7VvKLoe/qoeUsh1D2oHjd8WgjHuSIHf/tYOMgUc6+lFmBE7K9hhSDiC2RMWw1O6dIm/OlC3c/qB7OTp2mYNT1DliEwkHlMmlFAPjPWfoFjnnZSZjxM8c/CYVp1xCDzr2Cc1RxeAsHz1fwmnpwxitg1ou7XFStpdQyjY83yiGR8IG3Yw2Zh7s8uWXcVK2+1PKtgCsHxUJ8Mtq0VOiSclkDLMu8xfzcFK2u1PKthDWjVWkQKYG3dcYY2RW92xDKdvGpkJtRRa6VH4lRf+1JYzxJTP2Us9RyrbROeCtyEO4BA26SzOOEpZgrCi6Ucq28fngocjEqnb7jd1/7ZFTf4k8cYrIUsq2YNbLpcL/XyDuM3KD7puMUc2095+9JlHKthy0VeRjUckOxlwghsQx3rTtDadnPKVsy8J5DwllqFRqaMQG3awEisF2/m8tStmWiEh/RUoM2KD7KWMo7Yv+14WUsi0VnaorkuJRt4qRGnRbGfm8fkU/lOfglMyjlG00ZgxR5MVADboTGEPIKvI/Y4qh+I5SthGp/0yRmeEbfzJE/7V0hv2Dvv6P93qh+I1StlGxFfhILUNjNOiuyfhG8LUWjlLKtpzErFEkx+Nwmxm6noJRDMPnaLOfTSnb+IQ0VORH1w26KzOMHvrlf7uG4ypK2daE3+6YQIZK3yN6bdDdg2HxF0XmbGtx3EQp21ptkX8fYAYZKnG6bNCdzLD20xdThPS+Qinb2nGhRpwpZKgE7142S2e+P8kwteFn/8czC2f5TCnbmlJrhzn+Gv4/ZfXVoLsuw8zPWoN64dTIo5RtzfGttsYsMlSCDjXQS/+1MNaeZ9N/ZoZSts2DLeFGS9PoMO6qPhp0b2YZePy//6PRIpwHE6Vs62WPJuHJONPoMDh+qvZ5ymks6/6bvjmMUrZNyIO7Z0yjQyVirrYNuoszd8R+/es/jAnH8QOlbOuNLUMb+5hGh5o26F7NNOuvzNHVq1B8QCnb+tynGdTdzzQ6jOrfVqMG3QuYNg30tFjqZeOMn1K2dUvSxIPPzfNiOrAgR4M1uIOzSVvTuyJVxUuklG1db5iOqtzFPDr8bsd25AXibD0MO4tStnXPsGqF5lkgIjfo3qmDId+glG1DMGB9O9Mk1ChRk46hNej+Tvvh9qHwNgyxVU93No0OsRp0r9B+pN9TaBtrgTiz5B3z6HBc+j3h/demaz1Ij9YU1sYj+eRHD9PoUHiDbq2zIrxvU0Qbk7C8fuZZIHrPKb9SmCdXajy4gH9RNBuXMre67THPi6mwBt2XNE4VopRtgxOYOmWIeXRY82V7AR/TCjUdU/iPFMUScPzaYfMsEOEbdIdp+vk1IpkCWBJCp6X5m0aHPj9XgzxskKflWBY1ouCViOKRu8xzFljpcQWsQfe3Gg5jN6VsS7dA7FTjhHl0CNSgu7iGe8yUsi0nrZbFB5tGhwHX3W/QHamd+ZSyLS+NHjWJM40O3W7QnaaZ6ZSyLTchDRYUM40OlTt9XG/QvUmzjWVK2ZYfa9NvIsyjQ5cbdC/QymJK2TYJY0ZmmGiB2G+C8wvEBxp9JKSUbTNRa0T/KNPo0OkG3daz2hhKKdumWyCOzy5lnhfTIVNS1fdfq6HRH21K2TbjAnH7ju/Mo0PVDbrXa2MfpWybluYF782jw15p00K5Hon01sQ2Stk2NdHHJplogbiE06B7szYapJRt09MsZXFt8/xBLFejE2uBGJuujUmUsk38P0n30seaR4ct7TfoTtDoGCalbBP/5cHo5ebRYVza+S///NhmJ2pkCqVsE5+zsryJ2s0Ex/+R+ndKjdeBtZr1YaWUbeJrfFtkmafdjOIdUSetyZJcDXOIKGWbsIdnezO1m9EWStkmWNheXelBChEPpWwTDtlUbZ8PyUToZ0tK2Sa4hO2/HkBaEbYgpZRtQhWxVRtWIr2IgFK2CScWiB363CHNQEMp24STLKxS14OEAwilbBOuLBAn9KMFIhSUsk24SPGfNg4nAQFQglK2CdcJTD1XjkTkJvGUsk24yYw2S2iB6AaUsk1AENo6LY7U5BqUsk2ALRAjj7QkRTlPQ0rZJiAXiI+XliVVOcdaG8UNAcwsM7WbcZ9rFDGECNbNu0oLRFV4nKdoIUQR0iC7GGmMm7J9lCKFEIl19twI0pkjet2jKCGEM6ZgIGmNUrYJjanX1kTtZpxK2c6h4CDQqH/5h1IkOkrZJjReIG7fMY6E93nK9joKCgKfFdPPkvgoZZvQmOhjc7xJgZSyTWiLb0rv2mbXIKVsE1qTdO9lTUrZJgiNmW+mdjOUsk3olGGXfjZjNWFK2SZ0Rc8WWasoZZsgtCU2f3A4pWwThLbYXpVcRCnbBKExyR1N0G6GUrYJnROW91buasKUsk0YYYG4QeJ2M5SyTRiEwJi1WyllmyA0JrNKHemqCVPKNmE0Lmx+1otStglCW4rff9OXUrYJQuMF4t4XUrSboZRtwtC0OrXb6NWEKWWbMDyljd1uhlK2CSnwWn0oiFK2CUJbrI+/WUMp2wShMRWmGqzdDKVsExKybkTXipSyTRDaEnLbIO1mOlPKNiHxAvHAzlz9p2wvpIki5OZHnbebKVGL5oiQn8m/J+q23Ux8T5ofwhzUv7y4uh41OIlStgkTkZTwRHftZtpRyjZhNlbcPaMnDXajlG3CjGwZqpt2M+coZZswK76DuvvpQINtaCYIUy8QJ758rnHK9iOaBcLs2EZV7qJhyvZ4mgGCsPy73UyhNtWE/SeS8wnibwasb4ffbqYUpWwTxOfE5p/uTCnbBKHxAnFmyRKUsk0QGpN88iNKNeEMStkmCCZhed8KbzfzJpb8TBCOKHOr2x6BEgzIIxcTBJfAmClDBGnwIS0HCUIlx68JaDfjf40ytgnCCS5MS/OH7feSSU4lCCcpHvmmJdiHiUjyJ0G4tEDsVOMEgARblqfzuwThOq1OuVlNuOUfIeRFgnCPRo+auNxuJrd8cXIgQQDgtXqBC9WEgxuvDiTfEQQU1qZOtpsZVzKZvEYQwIwZmaFygTg2PZWqyBCEEGqN6MqrJlzxY8EKchRBCCTkQz9mqnd42tSEMuQighC/QIyZt+PZwLKV/nswP6DSncKnJc93osL2BKEFtANKEARBEARBEARBEARBEARBEARBEARBEARBEARBEARBEARBEARBEARBEARBEARBEARBEARBEARBEARBEARBEAQBxf8JMADMbEgWCV50YQAAAABJRU5ErkJggg==;fontColor=#000000;spacingTop=5;" parent="1" vertex="1">
          <mxGeometry x="-524" y="294.02" width="86" height="86" as="geometry" />
        </mxCell>
        <mxCell id="s2lWPQG35IqoSvQu0iW2-1" value="IoT Powerlink Box&lt;div&gt;&lt;br&gt;&lt;/div&gt;" style="verticalLabelPosition=bottom;aspect=fixed;html=1;shape=mxgraph.salesforce.iot2;fontColor=#000000;spacing=-15;whiteSpace=wrap;spacingBottom=0;spacingTop=-30;" parent="1" vertex="1">
          <mxGeometry x="-1122" y="293" width="70.43" height="70.43" as="geometry" />
        </mxCell>
      </root>
    </mxGraphModel>
  </diagram>
</mxfile>
